<mxfile host="app.diagrams.net" agent="Mozilla/5.0 (Windows NT 10.0; Win64; x64) AppleWebKit/537.36 (KHTML, like Gecko) Chrome/130.0.0.0 Safari/537.36" version="24.8.4">
  <diagram name="Page-1" id="m1w5r5AJ1A3JVh31STy3">
    <mxGraphModel dx="3609" dy="964" grid="1" gridSize="10" guides="1" tooltips="1" connect="1" arrows="1" fold="1" page="1" pageScale="1" pageWidth="850" pageHeight="1100" math="0" shadow="0">
      <root>
        <mxCell id="0" />
        <mxCell id="1" parent="0" />
        <UserObject label="" plantUmlData="{&#xa;  &quot;data&quot;: &quot;@startuml\n\npackage \&quot;PsyTrack System\&quot; {\n    \n    package \&quot;Patient Watch\&quot; {\n        component \&quot;Heart Rate Monitor\&quot; as HRM\n        component \&quot;Emotion Detection\&quot; as ED\n        component \&quot;GPS Tracker\&quot; as GPSP\n        component \&quot;Blood Pressure Monitor\&quot; as BPM\n        component \&quot;Alarm Receiver\&quot; as AlarmR\n\n        HRM -[HIDDEN]--&gt; ED\n        GPSP -[HIDDEN]--&gt; AlarmR\n        BPM -[HIDDEN]--&gt; AlarmR\n    }\n\n    package \&quot;Nurse Watch App\&quot; {\n        component \&quot;Alert Notifications\&quot; as AlertN\n        component \&quot;Location Tracking\&quot; as LocTrack\n        component \&quot;Patient Details\&quot; as PatDetails\n        component \&quot;Counseling Schedules\&quot; as CounSch\n        component \&quot;Alarm Trigger\&quot; as AlarmT\n    }\n\n    package \&quot;Nurse Mobile App\&quot; {\n        component \&quot;Patient Data\&quot; as MobPatData\n        component \&quot;Alerts History\&quot; as MobAlertsHistory\n        component \&quot;Schedules\&quot; as MobSchedules\n        component \&quot;Patient Details\&quot; as MobPatDetails\n    }\n\n    package \&quot;Hospital/Doctor Website\&quot; {\n        component \&quot;Admin Login\&quot; as AdminLogin\n        component \&quot;Doctor Login\&quot; as DocLogin\n        component \&quot;Appointments Management\&quot; as Appointments\n        component \&quot;Patient Info Database\&quot; as PatInfoDB\n        component \&quot;Alerts History Database\&quot; as AlertsHistoryDB\n        component \&quot;Notifications System\&quot; as Notifications\n        component \&quot;Analytics Dashboard\&quot; as Analytics\n        component \&quot;Doctors Management\&quot; as DocManagement\n        component \&quot;Nurses Management\&quot; as NurseManagement\n        component \&quot;Settings\&quot; as Settings\n    }\n\n    package \&quot;Hospital Database\&quot; {\n        database \&quot;Patient Database\&quot; as PatDB\n        database \&quot;Doctor Database\&quot; as DocDB\n        database \&quot;Nurse Database\&quot; as NurseDB\n        database \&quot;Alert History\&quot; as AlertDB\n        database \&quot;Schedule Database\&quot; as ScheduleDB\n    }\n\n    [Patient Watch] --&gt; [Nurse Watch App] : Sends Alerts, GPS, Heart Rate\n    [Patient Watch] --&gt; PatDB : Stores Patient Data\n    [Nurse Watch App] --&gt; [Nurse Mobile App] : Sync Patient Data\n    [Nurse Watch App] --&gt; AlertDB : Store Alert History\n    [Nurse Watch App] --&gt; ScheduleDB : Update/Fetch Schedules\n    [Nurse Mobile App] --&gt; [Hospital/Doctor Website] : Fetch Alerts History, Patient Details, Schedules\n\n    AdminLogin -[HIDDEN]--&gt; Notifications\n    DocLogin -[HIDDEN]--&gt; Notifications\n\n    PatDB --&gt; [Hospital/Doctor Website] : View/Edit Patient Data\n    DocDB --&gt; [Hospital/Doctor Website] : View/Edit Doctor Data\n    NurseDB --&gt; [Hospital/Doctor Website] : View/Edit Nurse Data\n    AlertDB --&gt; [Hospital/Doctor Website] : View Alerts History\n    ScheduleDB --&gt; [Hospital/Doctor Website] : Manage Appointments\n    [Analytics] --&gt; [Hospital/Doctor Website] : View Analytics Dashboard\n\n    AdminLogin --&gt; Analytics\n    AdminLogin --&gt; DocManagement\n    AdminLogin --&gt; NurseManagement\n    DocLogin --&gt; Appointments\n    DocLogin --&gt; AlertsHistoryDB\n    DocLogin --&gt; PatInfoDB\n    DocLogin --&gt; ScheduleDB\n    AdminLogin --&gt; Settings\n    DocLogin --&gt; Settings\n\n    [Nurse Watch App] --&gt; [Patient Watch] : Trigger Alarms\n}\n\n@enduml\n&quot;,&#xa;  &quot;format&quot;: &quot;svg&quot;&#xa;}" id="VpZBd0UqTfwmRrs5r9hn-2">
          <mxCell style="shape=image;noLabel=1;verticalAlign=top;aspect=fixed;imageAspect=0;image=data:image/svg+xml,PD94bWwgdmVyc2lvbj0iMS4wIiBlbmNvZGluZz0idXMtYXNjaWkiIHN0YW5kYWxvbmU9Im5vIj8+PHN2ZyB4bWxucz0iaHR0cDovL3d3dy53My5vcmcvMjAwMC9zdmciIHhtbG5zOnhsaW5rPSJodHRwOi8vd3d3LnczLm9yZy8xOTk5L3hsaW5rIiBjb250ZW50U3R5bGVUeXBlPSJ0ZXh0L2NzcyIgaGVpZ2h0PSI0OTdweCIgcHJlc2VydmVBc3BlY3RSYXRpbz0ibm9uZSIgc3R5bGU9IndpZHRoOjQxNDNweDtoZWlnaHQ6NDk3cHg7YmFja2dyb3VuZDojRkZGRkZGOyIgdmVyc2lvbj0iMS4xIiB2aWV3Qm94PSIwIDAgNDE0MyA0OTciIHdpZHRoPSI0MTQzcHgiIHpvb21BbmRQYW49Im1hZ25pZnkiPjxkZWZzLz48Zz48IS0tY2x1c3RlciBQc3lUcmFjayBTeXN0ZW0tLT48ZyBpZD0iY2x1c3Rlcl9Qc3lUcmFjayBTeXN0ZW0iPjxwYXRoIGQ9Ik04LjUsNiBMMTE1LjUsNiBBMy43NSwzLjc1IDAgMCAxIDExOCw4LjUgTDEyNSwyNi45ODQ0IEw0MTMzLjUsMjYuOTg0NCBBMi41LDIuNSAwIDAgMSA0MTM2LDI5LjQ4NDQgTDQxMzYsNDg3LjUgQTIuNSwyLjUgMCAwIDEgNDEzMy41LDQ5MCBMOC41LDQ5MCBBMi41LDIuNSAwIDAgMSA2LDQ4Ny41IEw2LDguNSBBMi41LDIuNSAwIDAgMSA4LjUsNiAiIGZpbGw9Im5vbmUiIHN0eWxlPSJzdHJva2U6IzAwMDAwMDtzdHJva2Utd2lkdGg6MS41OyIvPjxsaW5lIHN0eWxlPSJzdHJva2U6IzAwMDAwMDtzdHJva2Utd2lkdGg6MS41OyIgeDE9IjYiIHgyPSIxMjUiIHkxPSIyNi45ODQ0IiB5Mj0iMjYuOTg0NCIvPjx0ZXh0IGZpbGw9IiMwMDAwMDAiIGZvbnQtZmFtaWx5PSJzYW5zLXNlcmlmIiBmb250LXNpemU9IjE0IiBmb250LXdlaWdodD0iYm9sZCIgbGVuZ3RoQWRqdXN0PSJzcGFjaW5nIiB0ZXh0TGVuZ3RoPSIxMDYiIHg9IjEwIiB5PSIyMS4yMzQ0Ij5Qc3lUcmFjayBTeXN0ZW08L3RleHQ+PC9nPjwhLS1jbHVzdGVyIFBhdGllbnQgV2F0Y2gtLT48ZyBpZD0iY2x1c3Rlcl9QYXRpZW50IFdhdGNoIj48cGF0aCBkPSJNMzQ5MS41LDU1IEwzNTgzLjUsNTUgQTMuNzUsMy43NSAwIDAgMSAzNTg2LDU3LjUgTDM1OTMsNzUuOTg0NCBMNDEwMS41LDc1Ljk4NDQgQTIuNSwyLjUgMCAwIDEgNDEwNCw3OC40ODQ0IEw0MTA0LDQ1NS41IEEyLjUsMi41IDAgMCAxIDQxMDEuNSw0NTggTDM0OTEuNSw0NTggQTIuNSwyLjUgMCAwIDEgMzQ4OSw0NTUuNSBMMzQ4OSw1Ny41IEEyLjUsMi41IDAgMCAxIDM0OTEuNSw1NSAiIGZpbGw9Im5vbmUiIHN0eWxlPSJzdHJva2U6IzAwMDAwMDtzdHJva2Utd2lkdGg6MS41OyIvPjxsaW5lIHN0eWxlPSJzdHJva2U6IzAwMDAwMDtzdHJva2Utd2lkdGg6MS41OyIgeDE9IjM0ODkiIHgyPSIzNTkzIiB5MT0iNzUuOTg0NCIgeTI9Ijc1Ljk4NDQiLz48dGV4dCBmaWxsPSIjMDAwMDAwIiBmb250LWZhbWlseT0ic2Fucy1zZXJpZiIgZm9udC1zaXplPSIxNCIgZm9udC13ZWlnaHQ9ImJvbGQiIGxlbmd0aEFkanVzdD0ic3BhY2luZyIgdGV4dExlbmd0aD0iOTEiIHg9IjM0OTMiIHk9IjcwLjIzNDQiPlBhdGllbnQgV2F0Y2g8L3RleHQ+PC9nPjwhLS1jbHVzdGVyIE51cnNlIFdhdGNoIEFwcC0tPjxnIGlkPSJjbHVzdGVyX051cnNlIFdhdGNoIEFwcCI+PHBhdGggZD0iTTE2MDkuNSw1NSBMMTcxNS41LDU1IEEzLjc1LDMuNzUgMCAwIDEgMTcxOCw1Ny41IEwxNzI1LDc1Ljk4NDQgTDIyMTkuNSw3NS45ODQ0IEEyLjUsMi41IDAgMCAxIDIyMjIsNzguNDg0NCBMMjIyMiwzMTcuNSBBMi41LDIuNSAwIDAgMSAyMjE5LjUsMzIwIEwxNjA5LjUsMzIwIEEyLjUsMi41IDAgMCAxIDE2MDcsMzE3LjUgTDE2MDcsNTcuNSBBMi41LDIuNSAwIDAgMSAxNjA5LjUsNTUgIiBmaWxsPSJub25lIiBzdHlsZT0ic3Ryb2tlOiMwMDAwMDA7c3Ryb2tlLXdpZHRoOjEuNTsiLz48bGluZSBzdHlsZT0ic3Ryb2tlOiMwMDAwMDA7c3Ryb2tlLXdpZHRoOjEuNTsiIHgxPSIxNjA3IiB4Mj0iMTcyNSIgeTE9Ijc1Ljk4NDQiIHkyPSI3NS45ODQ0Ii8+PHRleHQgZmlsbD0iIzAwMDAwMCIgZm9udC1mYW1pbHk9InNhbnMtc2VyaWYiIGZvbnQtc2l6ZT0iMTQiIGZvbnQtd2VpZ2h0PSJib2xkIiBsZW5ndGhBZGp1c3Q9InNwYWNpbmciIHRleHRMZW5ndGg9IjEwNSIgeD0iMTYxMSIgeT0iNzAuMjM0NCI+TnVyc2UgV2F0Y2ggQXBwPC90ZXh0PjwvZz48IS0tY2x1c3RlciBOdXJzZSBNb2JpbGUgQXBwLS0+PGcgaWQ9ImNsdXN0ZXJfTnVyc2UgTW9iaWxlIEFwcCI+PHBhdGggZD0iTTMwODcuNSwyMTAgTDMyMDAuNSwyMTAgQTMuNzUsMy43NSAwIDAgMSAzMjAzLDIxMi41IEwzMjEwLDIzMC45ODQ0IEwzNDQ2LjUsMjMwLjk4NDQgQTIuNSwyLjUgMCAwIDEgMzQ0OSwyMzMuNDg0NCBMMzQ0OSw0NTUuNSBBMi41LDIuNSAwIDAgMSAzNDQ2LjUsNDU4IEwzMDg3LjUsNDU4IEEyLjUsMi41IDAgMCAxIDMwODUsNDU1LjUgTDMwODUsMjEyLjUgQTIuNSwyLjUgMCAwIDEgMzA4Ny41LDIxMCAiIGZpbGw9Im5vbmUiIHN0eWxlPSJzdHJva2U6IzAwMDAwMDtzdHJva2Utd2lkdGg6MS41OyIvPjxsaW5lIHN0eWxlPSJzdHJva2U6IzAwMDAwMDtzdHJva2Utd2lkdGg6MS41OyIgeDE9IjMwODUiIHgyPSIzMjEwIiB5MT0iMjMwLjk4NDQiIHkyPSIyMzAuOTg0NCIvPjx0ZXh0IGZpbGw9IiMwMDAwMDAiIGZvbnQtZmFtaWx5PSJzYW5zLXNlcmlmIiBmb250LXNpemU9IjE0IiBmb250LXdlaWdodD0iYm9sZCIgbGVuZ3RoQWRqdXN0PSJzcGFjaW5nIiB0ZXh0TGVuZ3RoPSIxMTIiIHg9IjMwODkiIHk9IjIyNS4yMzQ0Ij5OdXJzZSBNb2JpbGUgQXBwPC90ZXh0PjwvZz48IS0tY2x1c3RlciBIb3NwaXRhbC9Eb2N0b3IgV2Vic2l0ZS0tPjxnIGlkPSJjbHVzdGVyX0hvc3BpdGFsL0RvY3RvciBXZWJzaXRlIj48cGF0aCBkPSJNNDAuNSw1NSBMMjAyLjUsNTUgQTMuNzUsMy43NSAwIDAgMSAyMDUsNTcuNSBMMjEyLDc1Ljk4NDQgTDE1NjQuNSw3NS45ODQ0IEEyLjUsMi41IDAgMCAxIDE1NjcsNzguNDg0NCBMMTU2Nyw0NTUuNSBBMi41LDIuNSAwIDAgMSAxNTY0LjUsNDU4IEw0MC41LDQ1OCBBMi41LDIuNSAwIDAgMSAzOCw0NTUuNSBMMzgsNTcuNSBBMi41LDIuNSAwIDAgMSA0MC41LDU1ICIgZmlsbD0ibm9uZSIgc3R5bGU9InN0cm9rZTojMDAwMDAwO3N0cm9rZS13aWR0aDoxLjU7Ii8+PGxpbmUgc3R5bGU9InN0cm9rZTojMDAwMDAwO3N0cm9rZS13aWR0aDoxLjU7IiB4MT0iMzgiIHgyPSIyMTIiIHkxPSI3NS45ODQ0IiB5Mj0iNzUuOTg0NCIvPjx0ZXh0IGZpbGw9IiMwMDAwMDAiIGZvbnQtZmFtaWx5PSJzYW5zLXNlcmlmIiBmb250LXNpemU9IjE0IiBmb250LXdlaWdodD0iYm9sZCIgbGVuZ3RoQWRqdXN0PSJzcGFjaW5nIiB0ZXh0TGVuZ3RoPSIxNjEiIHg9IjQyIiB5PSI3MC4yMzQ0Ij5Ib3NwaXRhbC9Eb2N0b3IgV2Vic2l0ZTwvdGV4dD48L2c+PCEtLWNsdXN0ZXIgSG9zcGl0YWwgRGF0YWJhc2UtLT48ZyBpZD0iY2x1c3Rlcl9Ib3NwaXRhbCBEYXRhYmFzZSI+PHBhdGggZD0iTTIyNTYuNSwyMTguNSBMMjM3Ni41LDIxOC41IEEzLjc1LDMuNzUgMCAwIDEgMjM3OSwyMjEgTDIzODYsMjM5LjQ4NDQgTDMwNTAuNSwyMzkuNDg0NCBBMi41LDIuNSAwIDAgMSAzMDUzLDI0MS45ODQ0IEwzMDUzLDMwOSBBMi41LDIuNSAwIDAgMSAzMDUwLjUsMzExLjUgTDIyNTYuNSwzMTEuNSBBMi41LDIuNSAwIDAgMSAyMjU0LDMwOSBMMjI1NCwyMjEgQTIuNSwyLjUgMCAwIDEgMjI1Ni41LDIxOC41ICIgZmlsbD0ibm9uZSIgc3R5bGU9InN0cm9rZTojMDAwMDAwO3N0cm9rZS13aWR0aDoxLjU7Ii8+PGxpbmUgc3R5bGU9InN0cm9rZTojMDAwMDAwO3N0cm9rZS13aWR0aDoxLjU7IiB4MT0iMjI1NCIgeDI9IjIzODYiIHkxPSIyMzkuNDg0NCIgeTI9IjIzOS40ODQ0Ii8+PHRleHQgZmlsbD0iIzAwMDAwMCIgZm9udC1mYW1pbHk9InNhbnMtc2VyaWYiIGZvbnQtc2l6ZT0iMTQiIGZvbnQtd2VpZ2h0PSJib2xkIiBsZW5ndGhBZGp1c3Q9InNwYWNpbmciIHRleHRMZW5ndGg9IjExOSIgeD0iMjI1OCIgeT0iMjMzLjczNDQiPkhvc3BpdGFsIERhdGFiYXNlPC90ZXh0PjwvZz48IS0tZW50aXR5IEhSTS0tPjxnIGlkPSJlbGVtX0hSTSI+PHJlY3QgZmlsbD0iI0YxRjFGMSIgaGVpZ2h0PSI0NC45ODQ0IiByeD0iMi41IiByeT0iMi41IiBzdHlsZT0ic3Ryb2tlOiMxODE4MTg7c3Ryb2tlLXdpZHRoOjAuNTsiIHdpZHRoPSIxNjYiIHg9IjM5MTQiIHk9Ijk2Ii8+PHJlY3QgZmlsbD0iI0YxRjFGMSIgaGVpZ2h0PSIxMCIgc3R5bGU9InN0cm9rZTojMTgxODE4O3N0cm9rZS13aWR0aDowLjU7IiB3aWR0aD0iMTUiIHg9IjQwNjAiIHk9IjEwMSIvPjxyZWN0IGZpbGw9IiNGMUYxRjEiIGhlaWdodD0iMiIgc3R5bGU9InN0cm9rZTojMTgxODE4O3N0cm9rZS13aWR0aDowLjU7IiB3aWR0aD0iNCIgeD0iNDA1OCIgeT0iMTAzIi8+PHJlY3QgZmlsbD0iI0YxRjFGMSIgaGVpZ2h0PSIyIiBzdHlsZT0ic3Ryb2tlOiMxODE4MTg7c3Ryb2tlLXdpZHRoOjAuNTsiIHdpZHRoPSI0IiB4PSI0MDU4IiB5PSIxMDciLz48dGV4dCBmaWxsPSIjMDAwMDAwIiBmb250LWZhbWlseT0ic2Fucy1zZXJpZiIgZm9udC1zaXplPSIxNCIgbGVuZ3RoQWRqdXN0PSJzcGFjaW5nIiB0ZXh0TGVuZ3RoPSIxMjYiIHg9IjM5MjkiIHk9IjEyOS4yMzQ0Ij5IZWFydCBSYXRlIE1vbml0b3I8L3RleHQ+PC9nPjwhLS1lbnRpdHkgRUQtLT48ZyBpZD0iZWxlbV9FRCI+PHJlY3QgZmlsbD0iI0YxRjFGMSIgaGVpZ2h0PSI0NC45ODQ0IiByeD0iMi41IiByeT0iMi41IiBzdHlsZT0ic3Ryb2tlOiMxODE4MTg7c3Ryb2tlLXdpZHRoOjAuNTsiIHdpZHRoPSIxNjAiIHg9IjM5MTciIHk9IjM4OSIvPjxyZWN0IGZpbGw9IiNGMUYxRjEiIGhlaWdodD0iMTAiIHN0eWxlPSJzdHJva2U6IzE4MTgxODtzdHJva2Utd2lkdGg6MC41OyIgd2lkdGg9IjE1IiB4PSI0MDU3IiB5PSIzOTQiLz48cmVjdCBmaWxsPSIjRjFGMUYxIiBoZWlnaHQ9IjIiIHN0eWxlPSJzdHJva2U6IzE4MTgxODtzdHJva2Utd2lkdGg6MC41OyIgd2lkdGg9IjQiIHg9IjQwNTUiIHk9IjM5NiIvPjxyZWN0IGZpbGw9IiNGMUYxRjEiIGhlaWdodD0iMiIgc3R5bGU9InN0cm9rZTojMTgxODE4O3N0cm9rZS13aWR0aDowLjU7IiB3aWR0aD0iNCIgeD0iNDA1NSIgeT0iNDAwIi8+PHRleHQgZmlsbD0iIzAwMDAwMCIgZm9udC1mYW1pbHk9InNhbnMtc2VyaWYiIGZvbnQtc2l6ZT0iMTQiIGxlbmd0aEFkanVzdD0ic3BhY2luZyIgdGV4dExlbmd0aD0iMTIwIiB4PSIzOTMyIiB5PSI0MjIuMjM0NCI+RW1vdGlvbiBEZXRlY3Rpb248L3RleHQ+PC9nPjwhLS1lbnRpdHkgR1BTUC0tPjxnIGlkPSJlbGVtX0dQU1AiPjxyZWN0IGZpbGw9IiNGMUYxRjEiIGhlaWdodD0iNDQuOTg0NCIgcng9IjIuNSIgcnk9IjIuNSIgc3R5bGU9InN0cm9rZTojMTgxODE4O3N0cm9rZS13aWR0aDowLjU7IiB3aWR0aD0iMTE3IiB4PSIzNzYxLjUiIHk9Ijk2Ii8+PHJlY3QgZmlsbD0iI0YxRjFGMSIgaGVpZ2h0PSIxMCIgc3R5bGU9InN0cm9rZTojMTgxODE4O3N0cm9rZS13aWR0aDowLjU7IiB3aWR0aD0iMTUiIHg9IjM4NTguNSIgeT0iMTAxIi8+PHJlY3QgZmlsbD0iI0YxRjFGMSIgaGVpZ2h0PSIyIiBzdHlsZT0ic3Ryb2tlOiMxODE4MTg7c3Ryb2tlLXdpZHRoOjAuNTsiIHdpZHRoPSI0IiB4PSIzODU2LjUiIHk9IjEwMyIvPjxyZWN0IGZpbGw9IiNGMUYxRjEiIGhlaWdodD0iMiIgc3R5bGU9InN0cm9rZTojMTgxODE4O3N0cm9rZS13aWR0aDowLjU7IiB3aWR0aD0iNCIgeD0iMzg1Ni41IiB5PSIxMDciLz48dGV4dCBmaWxsPSIjMDAwMDAwIiBmb250LWZhbWlseT0ic2Fucy1zZXJpZiIgZm9udC1zaXplPSIxNCIgbGVuZ3RoQWRqdXN0PSJzcGFjaW5nIiB0ZXh0TGVuZ3RoPSI3NyIgeD0iMzc3Ni41IiB5PSIxMjkuMjM0NCI+R1BTIFRyYWNrZXI8L3RleHQ+PC9nPjwhLS1lbnRpdHkgQlBNLS0+PGcgaWQ9ImVsZW1fQlBNIj48cmVjdCBmaWxsPSIjRjFGMUYxIiBoZWlnaHQ9IjQ0Ljk4NDQiIHJ4PSIyLjUiIHJ5PSIyLjUiIHN0eWxlPSJzdHJva2U6IzE4MTgxODtzdHJva2Utd2lkdGg6MC41OyIgd2lkdGg9IjE5NCIgeD0iMzUzMiIgeT0iOTYiLz48cmVjdCBmaWxsPSIjRjFGMUYxIiBoZWlnaHQ9IjEwIiBzdHlsZT0ic3Ryb2tlOiMxODE4MTg7c3Ryb2tlLXdpZHRoOjAuNTsiIHdpZHRoPSIxNSIgeD0iMzcwNiIgeT0iMTAxIi8+PHJlY3QgZmlsbD0iI0YxRjFGMSIgaGVpZ2h0PSIyIiBzdHlsZT0ic3Ryb2tlOiMxODE4MTg7c3Ryb2tlLXdpZHRoOjAuNTsiIHdpZHRoPSI0IiB4PSIzNzA0IiB5PSIxMDMiLz48cmVjdCBmaWxsPSIjRjFGMUYxIiBoZWlnaHQ9IjIiIHN0eWxlPSJzdHJva2U6IzE4MTgxODtzdHJva2Utd2lkdGg6MC41OyIgd2lkdGg9IjQiIHg9IjM3MDQiIHk9IjEwNyIvPjx0ZXh0IGZpbGw9IiMwMDAwMDAiIGZvbnQtZmFtaWx5PSJzYW5zLXNlcmlmIiBmb250LXNpemU9IjE0IiBsZW5ndGhBZGp1c3Q9InNwYWNpbmciIHRleHRMZW5ndGg9IjE1NCIgeD0iMzU0NyIgeT0iMTI5LjIzNDQiPkJsb29kIFByZXNzdXJlIE1vbml0b3I8L3RleHQ+PC9nPjwhLS1lbnRpdHkgQWxhcm1SLS0+PGcgaWQ9ImVsZW1fQWxhcm1SIj48cmVjdCBmaWxsPSIjRjFGMUYxIiBoZWlnaHQ9IjQ0Ljk4NDQiIHJ4PSIyLjUiIHJ5PSIyLjUiIHN0eWxlPSJzdHJva2U6IzE4MTgxODtzdHJva2Utd2lkdGg6MC41OyIgd2lkdGg9IjEzOSIgeD0iMzY0NC41IiB5PSIzODkiLz48cmVjdCBmaWxsPSIjRjFGMUYxIiBoZWlnaHQ9IjEwIiBzdHlsZT0ic3Ryb2tlOiMxODE4MTg7c3Ryb2tlLXdpZHRoOjAuNTsiIHdpZHRoPSIxNSIgeD0iMzc2My41IiB5PSIzOTQiLz48cmVjdCBmaWxsPSIjRjFGMUYxIiBoZWlnaHQ9IjIiIHN0eWxlPSJzdHJva2U6IzE4MTgxODtzdHJva2Utd2lkdGg6MC41OyIgd2lkdGg9IjQiIHg9IjM3NjEuNSIgeT0iMzk2Ii8+PHJlY3QgZmlsbD0iI0YxRjFGMSIgaGVpZ2h0PSIyIiBzdHlsZT0ic3Ryb2tlOiMxODE4MTg7c3Ryb2tlLXdpZHRoOjAuNTsiIHdpZHRoPSI0IiB4PSIzNzYxLjUiIHk9IjQwMCIvPjx0ZXh0IGZpbGw9IiMwMDAwMDAiIGZvbnQtZmFtaWx5PSJzYW5zLXNlcmlmIiBmb250LXNpemU9IjE0IiBsZW5ndGhBZGp1c3Q9InNwYWNpbmciIHRleHRMZW5ndGg9Ijk5IiB4PSIzNjU5LjUiIHk9IjQyMi4yMzQ0Ij5BbGFybSBSZWNlaXZlcjwvdGV4dD48L2c+PCEtLWVudGl0eSBBbGVydE4tLT48ZyBpZD0iZWxlbV9BbGVydE4iPjxyZWN0IGZpbGw9IiNGMUYxRjEiIGhlaWdodD0iNDQuOTg0NCIgcng9IjIuNSIgcnk9IjIuNSIgc3R5bGU9InN0cm9rZTojMTgxODE4O3N0cm9rZS13aWR0aDowLjU7IiB3aWR0aD0iMTczIiB4PSIxNjMxLjUiIHk9Ijk2Ii8+PHJlY3QgZmlsbD0iI0YxRjFGMSIgaGVpZ2h0PSIxMCIgc3R5bGU9InN0cm9rZTojMTgxODE4O3N0cm9rZS13aWR0aDowLjU7IiB3aWR0aD0iMTUiIHg9IjE3ODQuNSIgeT0iMTAxIi8+PHJlY3QgZmlsbD0iI0YxRjFGMSIgaGVpZ2h0PSIyIiBzdHlsZT0ic3Ryb2tlOiMxODE4MTg7c3Ryb2tlLXdpZHRoOjAuNTsiIHdpZHRoPSI0IiB4PSIxNzgyLjUiIHk9IjEwMyIvPjxyZWN0IGZpbGw9IiNGMUYxRjEiIGhlaWdodD0iMiIgc3R5bGU9InN0cm9rZTojMTgxODE4O3N0cm9rZS13aWR0aDowLjU7IiB3aWR0aD0iNCIgeD0iMTc4Mi41IiB5PSIxMDciLz48dGV4dCBmaWxsPSIjMDAwMDAwIiBmb250LWZhbWlseT0ic2Fucy1zZXJpZiIgZm9udC1zaXplPSIxNCIgbGVuZ3RoQWRqdXN0PSJzcGFjaW5nIiB0ZXh0TGVuZ3RoPSIxMzMiIHg9IjE2NDYuNSIgeT0iMTI5LjIzNDQiPkFsZXJ0IE5vdGlmaWNhdGlvbnM8L3RleHQ+PC9nPjwhLS1lbnRpdHkgTG9jVHJhY2stLT48ZyBpZD0iZWxlbV9Mb2NUcmFjayI+PHJlY3QgZmlsbD0iI0YxRjFGMSIgaGVpZ2h0PSI0NC45ODQ0IiByeD0iMi41IiByeT0iMi41IiBzdHlsZT0ic3Ryb2tlOiMxODE4MTg7c3Ryb2tlLXdpZHRoOjAuNTsiIHdpZHRoPSIxNTkiIHg9IjE4MzkuNSIgeT0iOTYiLz48cmVjdCBmaWxsPSIjRjFGMUYxIiBoZWlnaHQ9IjEwIiBzdHlsZT0ic3Ryb2tlOiMxODE4MTg7c3Ryb2tlLXdpZHRoOjAuNTsiIHdpZHRoPSIxNSIgeD0iMTk3OC41IiB5PSIxMDEiLz48cmVjdCBmaWxsPSIjRjFGMUYxIiBoZWlnaHQ9IjIiIHN0eWxlPSJzdHJva2U6IzE4MTgxODtzdHJva2Utd2lkdGg6MC41OyIgd2lkdGg9IjQiIHg9IjE5NzYuNSIgeT0iMTAzIi8+PHJlY3QgZmlsbD0iI0YxRjFGMSIgaGVpZ2h0PSIyIiBzdHlsZT0ic3Ryb2tlOiMxODE4MTg7c3Ryb2tlLXdpZHRoOjAuNTsiIHdpZHRoPSI0IiB4PSIxOTc2LjUiIHk9IjEwNyIvPjx0ZXh0IGZpbGw9IiMwMDAwMDAiIGZvbnQtZmFtaWx5PSJzYW5zLXNlcmlmIiBmb250LXNpemU9IjE0IiBsZW5ndGhBZGp1c3Q9InNwYWNpbmciIHRleHRMZW5ndGg9IjExOSIgeD0iMTg1NC41IiB5PSIxMjkuMjM0NCI+TG9jYXRpb24gVHJhY2tpbmc8L3RleHQ+PC9nPjwhLS1lbnRpdHkgUGF0RGV0YWlscy0tPjxnIGlkPSJlbGVtX1BhdERldGFpbHMiPjxyZWN0IGZpbGw9IiNGMUYxRjEiIGhlaWdodD0iNDQuOTg0NCIgcng9IjIuNSIgcnk9IjIuNSIgc3R5bGU9InN0cm9rZTojMTgxODE4O3N0cm9rZS13aWR0aDowLjU7IiB3aWR0aD0iMTQ1IiB4PSIyMDMzLjUiIHk9Ijk2Ii8+PHJlY3QgZmlsbD0iI0YxRjFGMSIgaGVpZ2h0PSIxMCIgc3R5bGU9InN0cm9rZTojMTgxODE4O3N0cm9rZS13aWR0aDowLjU7IiB3aWR0aD0iMTUiIHg9IjIxNTguNSIgeT0iMTAxIi8+PHJlY3QgZmlsbD0iI0YxRjFGMSIgaGVpZ2h0PSIyIiBzdHlsZT0ic3Ryb2tlOiMxODE4MTg7c3Ryb2tlLXdpZHRoOjAuNTsiIHdpZHRoPSI0IiB4PSIyMTU2LjUiIHk9IjEwMyIvPjxyZWN0IGZpbGw9IiNGMUYxRjEiIGhlaWdodD0iMiIgc3R5bGU9InN0cm9rZTojMTgxODE4O3N0cm9rZS13aWR0aDowLjU7IiB3aWR0aD0iNCIgeD0iMjE1Ni41IiB5PSIxMDciLz48dGV4dCBmaWxsPSIjMDAwMDAwIiBmb250LWZhbWlseT0ic2Fucy1zZXJpZiIgZm9udC1zaXplPSIxNCIgbGVuZ3RoQWRqdXN0PSJzcGFjaW5nIiB0ZXh0TGVuZ3RoPSIxMDUiIHg9IjIwNDguNSIgeT0iMTI5LjIzNDQiPlBhdGllbnQgRGV0YWlsczwvdGV4dD48L2c+PCEtLWVudGl0eSBDb3VuU2NoLS0+PGcgaWQ9ImVsZW1fQ291blNjaCI+PHJlY3QgZmlsbD0iI0YxRjFGMSIgaGVpZ2h0PSI0NC45ODQ0IiByeD0iMi41IiByeT0iMi41IiBzdHlsZT0ic3Ryb2tlOiMxODE4MTg7c3Ryb2tlLXdpZHRoOjAuNTsiIHdpZHRoPSIxODAiIHg9IjE2MzEiIHk9IjI1MSIvPjxyZWN0IGZpbGw9IiNGMUYxRjEiIGhlaWdodD0iMTAiIHN0eWxlPSJzdHJva2U6IzE4MTgxODtzdHJva2Utd2lkdGg6MC41OyIgd2lkdGg9IjE1IiB4PSIxNzkxIiB5PSIyNTYiLz48cmVjdCBmaWxsPSIjRjFGMUYxIiBoZWlnaHQ9IjIiIHN0eWxlPSJzdHJva2U6IzE4MTgxODtzdHJva2Utd2lkdGg6MC41OyIgd2lkdGg9IjQiIHg9IjE3ODkiIHk9IjI1OCIvPjxyZWN0IGZpbGw9IiNGMUYxRjEiIGhlaWdodD0iMiIgc3R5bGU9InN0cm9rZTojMTgxODE4O3N0cm9rZS13aWR0aDowLjU7IiB3aWR0aD0iNCIgeD0iMTc4OSIgeT0iMjYyIi8+PHRleHQgZmlsbD0iIzAwMDAwMCIgZm9udC1mYW1pbHk9InNhbnMtc2VyaWYiIGZvbnQtc2l6ZT0iMTQiIGxlbmd0aEFkanVzdD0ic3BhY2luZyIgdGV4dExlbmd0aD0iMTQwIiB4PSIxNjQ2IiB5PSIyODQuMjM0NCI+Q291bnNlbGluZyBTY2hlZHVsZXM8L3RleHQ+PC9nPjwhLS1lbnRpdHkgQWxhcm1ULS0+PGcgaWQ9ImVsZW1fQWxhcm1UIj48cmVjdCBmaWxsPSIjRjFGMUYxIiBoZWlnaHQ9IjQ0Ljk4NDQiIHJ4PSIyLjUiIHJ5PSIyLjUiIHN0eWxlPSJzdHJva2U6IzE4MTgxODtzdHJva2Utd2lkdGg6MC41OyIgd2lkdGg9IjEzMiIgeD0iMTg0NiIgeT0iMjUxIi8+PHJlY3QgZmlsbD0iI0YxRjFGMSIgaGVpZ2h0PSIxMCIgc3R5bGU9InN0cm9rZTojMTgxODE4O3N0cm9rZS13aWR0aDowLjU7IiB3aWR0aD0iMTUiIHg9IjE5NTgiIHk9IjI1NiIvPjxyZWN0IGZpbGw9IiNGMUYxRjEiIGhlaWdodD0iMiIgc3R5bGU9InN0cm9rZTojMTgxODE4O3N0cm9rZS13aWR0aDowLjU7IiB3aWR0aD0iNCIgeD0iMTk1NiIgeT0iMjU4Ii8+PHJlY3QgZmlsbD0iI0YxRjFGMSIgaGVpZ2h0PSIyIiBzdHlsZT0ic3Ryb2tlOiMxODE4MTg7c3Ryb2tlLXdpZHRoOjAuNTsiIHdpZHRoPSI0IiB4PSIxOTU2IiB5PSIyNjIiLz48dGV4dCBmaWxsPSIjMDAwMDAwIiBmb250LWZhbWlseT0ic2Fucy1zZXJpZiIgZm9udC1zaXplPSIxNCIgbGVuZ3RoQWRqdXN0PSJzcGFjaW5nIiB0ZXh0TGVuZ3RoPSI5MiIgeD0iMTg2MSIgeT0iMjg0LjIzNDQiPkFsYXJtIFRyaWdnZXI8L3RleHQ+PC9nPjwhLS1lbnRpdHkgTW9iUGF0RGF0YS0tPjxnIGlkPSJlbGVtX01vYlBhdERhdGEiPjxyZWN0IGZpbGw9IiNGMUYxRjEiIGhlaWdodD0iNDQuOTg0NCIgcng9IjIuNSIgcnk9IjIuNSIgc3R5bGU9InN0cm9rZTojMTgxODE4O3N0cm9rZS13aWR0aDowLjU7IiB3aWR0aD0iMTI0IiB4PSIzMTI4IiB5PSIyNTEiLz48cmVjdCBmaWxsPSIjRjFGMUYxIiBoZWlnaHQ9IjEwIiBzdHlsZT0ic3Ryb2tlOiMxODE4MTg7c3Ryb2tlLXdpZHRoOjAuNTsiIHdpZHRoPSIxNSIgeD0iMzIzMiIgeT0iMjU2Ii8+PHJlY3QgZmlsbD0iI0YxRjFGMSIgaGVpZ2h0PSIyIiBzdHlsZT0ic3Ryb2tlOiMxODE4MTg7c3Ryb2tlLXdpZHRoOjAuNTsiIHdpZHRoPSI0IiB4PSIzMjMwIiB5PSIyNTgiLz48cmVjdCBmaWxsPSIjRjFGMUYxIiBoZWlnaHQ9IjIiIHN0eWxlPSJzdHJva2U6IzE4MTgxODtzdHJva2Utd2lkdGg6MC41OyIgd2lkdGg9IjQiIHg9IjMyMzAiIHk9IjI2MiIvPjx0ZXh0IGZpbGw9IiMwMDAwMDAiIGZvbnQtZmFtaWx5PSJzYW5zLXNlcmlmIiBmb250LXNpemU9IjE0IiBsZW5ndGhBZGp1c3Q9InNwYWNpbmciIHRleHRMZW5ndGg9Ijg0IiB4PSIzMTQzIiB5PSIyODQuMjM0NCI+UGF0aWVudCBEYXRhPC90ZXh0PjwvZz48IS0tZW50aXR5IE1vYkFsZXJ0c0hpc3RvcnktLT48ZyBpZD0iZWxlbV9Nb2JBbGVydHNIaXN0b3J5Ij48cmVjdCBmaWxsPSIjRjFGMUYxIiBoZWlnaHQ9IjQ0Ljk4NDQiIHJ4PSIyLjUiIHJ5PSIyLjUiIHN0eWxlPSJzdHJva2U6IzE4MTgxODtzdHJva2Utd2lkdGg6MC41OyIgd2lkdGg9IjEzOCIgeD0iMzI4NyIgeT0iMjUxIi8+PHJlY3QgZmlsbD0iI0YxRjFGMSIgaGVpZ2h0PSIxMCIgc3R5bGU9InN0cm9rZTojMTgxODE4O3N0cm9rZS13aWR0aDowLjU7IiB3aWR0aD0iMTUiIHg9IjM0MDUiIHk9IjI1NiIvPjxyZWN0IGZpbGw9IiNGMUYxRjEiIGhlaWdodD0iMiIgc3R5bGU9InN0cm9rZTojMTgxODE4O3N0cm9rZS13aWR0aDowLjU7IiB3aWR0aD0iNCIgeD0iMzQwMyIgeT0iMjU4Ii8+PHJlY3QgZmlsbD0iI0YxRjFGMSIgaGVpZ2h0PSIyIiBzdHlsZT0ic3Ryb2tlOiMxODE4MTg7c3Ryb2tlLXdpZHRoOjAuNTsiIHdpZHRoPSI0IiB4PSIzNDAzIiB5PSIyNjIiLz48dGV4dCBmaWxsPSIjMDAwMDAwIiBmb250LWZhbWlseT0ic2Fucy1zZXJpZiIgZm9udC1zaXplPSIxNCIgbGVuZ3RoQWRqdXN0PSJzcGFjaW5nIiB0ZXh0TGVuZ3RoPSI5OCIgeD0iMzMwMiIgeT0iMjg0LjIzNDQiPkFsZXJ0cyBIaXN0b3J5PC90ZXh0PjwvZz48IS0tZW50aXR5IE1vYlNjaGVkdWxlcy0tPjxnIGlkPSJlbGVtX01vYlNjaGVkdWxlcyI+PHJlY3QgZmlsbD0iI0YxRjFGMSIgaGVpZ2h0PSI0NC45ODQ0IiByeD0iMi41IiByeT0iMi41IiBzdHlsZT0ic3Ryb2tlOiMxODE4MTg7c3Ryb2tlLXdpZHRoOjAuNTsiIHdpZHRoPSIxMDMiIHg9IjMxMzguNSIgeT0iMzg5Ii8+PHJlY3QgZmlsbD0iI0YxRjFGMSIgaGVpZ2h0PSIxMCIgc3R5bGU9InN0cm9rZTojMTgxODE4O3N0cm9rZS13aWR0aDowLjU7IiB3aWR0aD0iMTUiIHg9IjMyMjEuNSIgeT0iMzk0Ii8+PHJlY3QgZmlsbD0iI0YxRjFGMSIgaGVpZ2h0PSIyIiBzdHlsZT0ic3Ryb2tlOiMxODE4MTg7c3Ryb2tlLXdpZHRoOjAuNTsiIHdpZHRoPSI0IiB4PSIzMjE5LjUiIHk9IjM5NiIvPjxyZWN0IGZpbGw9IiNGMUYxRjEiIGhlaWdodD0iMiIgc3R5bGU9InN0cm9rZTojMTgxODE4O3N0cm9rZS13aWR0aDowLjU7IiB3aWR0aD0iNCIgeD0iMzIxOS41IiB5PSI0MDAiLz48dGV4dCBmaWxsPSIjMDAwMDAwIiBmb250LWZhbWlseT0ic2Fucy1zZXJpZiIgZm9udC1zaXplPSIxNCIgbGVuZ3RoQWRqdXN0PSJzcGFjaW5nIiB0ZXh0TGVuZ3RoPSI2MyIgeD0iMzE1My41IiB5PSI0MjIuMjM0NCI+U2NoZWR1bGVzPC90ZXh0PjwvZz48IS0tZW50aXR5IE1vYlBhdERldGFpbHMtLT48ZyBpZD0iZWxlbV9Nb2JQYXREZXRhaWxzIj48cmVjdCBmaWxsPSIjRjFGMUYxIiBoZWlnaHQ9IjQ0Ljk4NDQiIHJ4PSIyLjUiIHJ5PSIyLjUiIHN0eWxlPSJzdHJva2U6IzE4MTgxODtzdHJva2Utd2lkdGg6MC41OyIgd2lkdGg9IjE0NSIgeD0iMzI3Ni41IiB5PSIzODkiLz48cmVjdCBmaWxsPSIjRjFGMUYxIiBoZWlnaHQ9IjEwIiBzdHlsZT0ic3Ryb2tlOiMxODE4MTg7c3Ryb2tlLXdpZHRoOjAuNTsiIHdpZHRoPSIxNSIgeD0iMzQwMS41IiB5PSIzOTQiLz48cmVjdCBmaWxsPSIjRjFGMUYxIiBoZWlnaHQ9IjIiIHN0eWxlPSJzdHJva2U6IzE4MTgxODtzdHJva2Utd2lkdGg6MC41OyIgd2lkdGg9IjQiIHg9IjMzOTkuNSIgeT0iMzk2Ii8+PHJlY3QgZmlsbD0iI0YxRjFGMSIgaGVpZ2h0PSIyIiBzdHlsZT0ic3Ryb2tlOiMxODE4MTg7c3Ryb2tlLXdpZHRoOjAuNTsiIHdpZHRoPSI0IiB4PSIzMzk5LjUiIHk9IjQwMCIvPjx0ZXh0IGZpbGw9IiMwMDAwMDAiIGZvbnQtZmFtaWx5PSJzYW5zLXNlcmlmIiBmb250LXNpemU9IjE0IiBsZW5ndGhBZGp1c3Q9InNwYWNpbmciIHRleHRMZW5ndGg9IjEwNSIgeD0iMzI5MS41IiB5PSI0MjIuMjM0NCI+UGF0aWVudCBEZXRhaWxzPC90ZXh0PjwvZz48IS0tZW50aXR5IEFkbWluTG9naW4tLT48ZyBpZD0iZWxlbV9BZG1pbkxvZ2luIj48cmVjdCBmaWxsPSIjRjFGMUYxIiBoZWlnaHQ9IjQ0Ljk4NDQiIHJ4PSIyLjUiIHJ5PSIyLjUiIHN0eWxlPSJzdHJva2U6IzE4MTgxODtzdHJva2Utd2lkdGg6MC41OyIgd2lkdGg9IjExOCIgeD0iMTE1MCIgeT0iOTYiLz48cmVjdCBmaWxsPSIjRjFGMUYxIiBoZWlnaHQ9IjEwIiBzdHlsZT0ic3Ryb2tlOiMxODE4MTg7c3Ryb2tlLXdpZHRoOjAuNTsiIHdpZHRoPSIxNSIgeD0iMTI0OCIgeT0iMTAxIi8+PHJlY3QgZmlsbD0iI0YxRjFGMSIgaGVpZ2h0PSIyIiBzdHlsZT0ic3Ryb2tlOiMxODE4MTg7c3Ryb2tlLXdpZHRoOjAuNTsiIHdpZHRoPSI0IiB4PSIxMjQ2IiB5PSIxMDMiLz48cmVjdCBmaWxsPSIjRjFGMUYxIiBoZWlnaHQ9IjIiIHN0eWxlPSJzdHJva2U6IzE4MTgxODtzdHJva2Utd2lkdGg6MC41OyIgd2lkdGg9IjQiIHg9IjEyNDYiIHk9IjEwNyIvPjx0ZXh0IGZpbGw9IiMwMDAwMDAiIGZvbnQtZmFtaWx5PSJzYW5zLXNlcmlmIiBmb250LXNpemU9IjE0IiBsZW5ndGhBZGp1c3Q9InNwYWNpbmciIHRleHRMZW5ndGg9Ijc4IiB4PSIxMTY1IiB5PSIxMjkuMjM0NCI+QWRtaW4gTG9naW48L3RleHQ+PC9nPjwhLS1lbnRpdHkgRG9jTG9naW4tLT48ZyBpZD0iZWxlbV9Eb2NMb2dpbiI+PHJlY3QgZmlsbD0iI0YxRjFGMSIgaGVpZ2h0PSI0NC45ODQ0IiByeD0iMi41IiByeT0iMi41IiBzdHlsZT0ic3Ryb2tlOiMxODE4MTg7c3Ryb2tlLXdpZHRoOjAuNTsiIHdpZHRoPSIxMjQiIHg9IjY2MSIgeT0iOTYiLz48cmVjdCBmaWxsPSIjRjFGMUYxIiBoZWlnaHQ9IjEwIiBzdHlsZT0ic3Ryb2tlOiMxODE4MTg7c3Ryb2tlLXdpZHRoOjAuNTsiIHdpZHRoPSIxNSIgeD0iNzY1IiB5PSIxMDEiLz48cmVjdCBmaWxsPSIjRjFGMUYxIiBoZWlnaHQ9IjIiIHN0eWxlPSJzdHJva2U6IzE4MTgxODtzdHJva2Utd2lkdGg6MC41OyIgd2lkdGg9IjQiIHg9Ijc2MyIgeT0iMTAzIi8+PHJlY3QgZmlsbD0iI0YxRjFGMSIgaGVpZ2h0PSIyIiBzdHlsZT0ic3Ryb2tlOiMxODE4MTg7c3Ryb2tlLXdpZHRoOjAuNTsiIHdpZHRoPSI0IiB4PSI3NjMiIHk9IjEwNyIvPjx0ZXh0IGZpbGw9IiMwMDAwMDAiIGZvbnQtZmFtaWx5PSJzYW5zLXNlcmlmIiBmb250LXNpemU9IjE0IiBsZW5ndGhBZGp1c3Q9InNwYWNpbmciIHRleHRMZW5ndGg9Ijg0IiB4PSI2NzYiIHk9IjEyOS4yMzQ0Ij5Eb2N0b3IgTG9naW48L3RleHQ+PC9nPjwhLS1lbnRpdHkgQXBwb2ludG1lbnRzLS0+PGcgaWQ9ImVsZW1fQXBwb2ludG1lbnRzIj48cmVjdCBmaWxsPSIjRjFGMUYxIiBoZWlnaHQ9IjQ0Ljk4NDQiIHJ4PSIyLjUiIHJ5PSIyLjUiIHN0eWxlPSJzdHJva2U6IzE4MTgxODtzdHJva2Utd2lkdGg6MC41OyIgd2lkdGg9IjIwMyIgeD0iNjEuNSIgeT0iMjUxIi8+PHJlY3QgZmlsbD0iI0YxRjFGMSIgaGVpZ2h0PSIxMCIgc3R5bGU9InN0cm9rZTojMTgxODE4O3N0cm9rZS13aWR0aDowLjU7IiB3aWR0aD0iMTUiIHg9IjI0NC41IiB5PSIyNTYiLz48cmVjdCBmaWxsPSIjRjFGMUYxIiBoZWlnaHQ9IjIiIHN0eWxlPSJzdHJva2U6IzE4MTgxODtzdHJva2Utd2lkdGg6MC41OyIgd2lkdGg9IjQiIHg9IjI0Mi41IiB5PSIyNTgiLz48cmVjdCBmaWxsPSIjRjFGMUYxIiBoZWlnaHQ9IjIiIHN0eWxlPSJzdHJva2U6IzE4MTgxODtzdHJva2Utd2lkdGg6MC41OyIgd2lkdGg9IjQiIHg9IjI0Mi41IiB5PSIyNjIiLz48dGV4dCBmaWxsPSIjMDAwMDAwIiBmb250LWZhbWlseT0ic2Fucy1zZXJpZiIgZm9udC1zaXplPSIxNCIgbGVuZ3RoQWRqdXN0PSJzcGFjaW5nIiB0ZXh0TGVuZ3RoPSIxNjMiIHg9Ijc2LjUiIHk9IjI4NC4yMzQ0Ij5BcHBvaW50bWVudHMgTWFuYWdlbWVudDwvdGV4dD48L2c+PCEtLWVudGl0eSBQYXRJbmZvREItLT48ZyBpZD0iZWxlbV9QYXRJbmZvREIiPjxyZWN0IGZpbGw9IiNGMUYxRjEiIGhlaWdodD0iNDQuOTg0NCIgcng9IjIuNSIgcnk9IjIuNSIgc3R5bGU9InN0cm9rZTojMTgxODE4O3N0cm9rZS13aWR0aDowLjU7IiB3aWR0aD0iMTg3IiB4PSIyOTkuNSIgeT0iMjUxIi8+PHJlY3QgZmlsbD0iI0YxRjFGMSIgaGVpZ2h0PSIxMCIgc3R5bGU9InN0cm9rZTojMTgxODE4O3N0cm9rZS13aWR0aDowLjU7IiB3aWR0aD0iMTUiIHg9IjQ2Ni41IiB5PSIyNTYiLz48cmVjdCBmaWxsPSIjRjFGMUYxIiBoZWlnaHQ9IjIiIHN0eWxlPSJzdHJva2U6IzE4MTgxODtzdHJva2Utd2lkdGg6MC41OyIgd2lkdGg9IjQiIHg9IjQ2NC41IiB5PSIyNTgiLz48cmVjdCBmaWxsPSIjRjFGMUYxIiBoZWlnaHQ9IjIiIHN0eWxlPSJzdHJva2U6IzE4MTgxODtzdHJva2Utd2lkdGg6MC41OyIgd2lkdGg9IjQiIHg9IjQ2NC41IiB5PSIyNjIiLz48dGV4dCBmaWxsPSIjMDAwMDAwIiBmb250LWZhbWlseT0ic2Fucy1zZXJpZiIgZm9udC1zaXplPSIxNCIgbGVuZ3RoQWRqdXN0PSJzcGFjaW5nIiB0ZXh0TGVuZ3RoPSIxNDciIHg9IjMxNC41IiB5PSIyODQuMjM0NCI+UGF0aWVudCBJbmZvIERhdGFiYXNlPC90ZXh0PjwvZz48IS0tZW50aXR5IEFsZXJ0c0hpc3RvcnlEQi0tPjxnIGlkPSJlbGVtX0FsZXJ0c0hpc3RvcnlEQiI+PHJlY3QgZmlsbD0iI0YxRjFGMSIgaGVpZ2h0PSI0NC45ODQ0IiByeD0iMi41IiByeT0iMi41IiBzdHlsZT0ic3Ryb2tlOiMxODE4MTg7c3Ryb2tlLXdpZHRoOjAuNTsiIHdpZHRoPSIyMDEiIHg9IjUyMS41IiB5PSIyNTEiLz48cmVjdCBmaWxsPSIjRjFGMUYxIiBoZWlnaHQ9IjEwIiBzdHlsZT0ic3Ryb2tlOiMxODE4MTg7c3Ryb2tlLXdpZHRoOjAuNTsiIHdpZHRoPSIxNSIgeD0iNzAyLjUiIHk9IjI1NiIvPjxyZWN0IGZpbGw9IiNGMUYxRjEiIGhlaWdodD0iMiIgc3R5bGU9InN0cm9rZTojMTgxODE4O3N0cm9rZS13aWR0aDowLjU7IiB3aWR0aD0iNCIgeD0iNzAwLjUiIHk9IjI1OCIvPjxyZWN0IGZpbGw9IiNGMUYxRjEiIGhlaWdodD0iMiIgc3R5bGU9InN0cm9rZTojMTgxODE4O3N0cm9rZS13aWR0aDowLjU7IiB3aWR0aD0iNCIgeD0iNzAwLjUiIHk9IjI2MiIvPjx0ZXh0IGZpbGw9IiMwMDAwMDAiIGZvbnQtZmFtaWx5PSJzYW5zLXNlcmlmIiBmb250LXNpemU9IjE0IiBsZW5ndGhBZGp1c3Q9InNwYWNpbmciIHRleHRMZW5ndGg9IjE2MSIgeD0iNTM2LjUiIHk9IjI4NC4yMzQ0Ij5BbGVydHMgSGlzdG9yeSBEYXRhYmFzZTwvdGV4dD48L2c+PCEtLWVudGl0eSBOb3RpZmljYXRpb25zLS0+PGcgaWQ9ImVsZW1fTm90aWZpY2F0aW9ucyI+PHJlY3QgZmlsbD0iI0YxRjFGMSIgaGVpZ2h0PSI0NC45ODQ0IiByeD0iMi41IiByeT0iMi41IiBzdHlsZT0ic3Ryb2tlOiMxODE4MTg7c3Ryb2tlLXdpZHRoOjAuNTsiIHdpZHRoPSIxODEiIHg9Ijk1MS41IiB5PSIzODkiLz48cmVjdCBmaWxsPSIjRjFGMUYxIiBoZWlnaHQ9IjEwIiBzdHlsZT0ic3Ryb2tlOiMxODE4MTg7c3Ryb2tlLXdpZHRoOjAuNTsiIHdpZHRoPSIxNSIgeD0iMTExMi41IiB5PSIzOTQiLz48cmVjdCBmaWxsPSIjRjFGMUYxIiBoZWlnaHQ9IjIiIHN0eWxlPSJzdHJva2U6IzE4MTgxODtzdHJva2Utd2lkdGg6MC41OyIgd2lkdGg9IjQiIHg9IjExMTAuNSIgeT0iMzk2Ii8+PHJlY3QgZmlsbD0iI0YxRjFGMSIgaGVpZ2h0PSIyIiBzdHlsZT0ic3Ryb2tlOiMxODE4MTg7c3Ryb2tlLXdpZHRoOjAuNTsiIHdpZHRoPSI0IiB4PSIxMTEwLjUiIHk9IjQwMCIvPjx0ZXh0IGZpbGw9IiMwMDAwMDAiIGZvbnQtZmFtaWx5PSJzYW5zLXNlcmlmIiBmb250LXNpemU9IjE0IiBsZW5ndGhBZGp1c3Q9InNwYWNpbmciIHRleHRMZW5ndGg9IjE0MSIgeD0iOTY2LjUiIHk9IjQyMi4yMzQ0Ij5Ob3RpZmljYXRpb25zIFN5c3RlbTwvdGV4dD48L2c+PCEtLWVudGl0eSBBbmFseXRpY3MtLT48ZyBpZD0iZWxlbV9BbmFseXRpY3MiPjxyZWN0IGZpbGw9IiNGMUYxRjEiIGhlaWdodD0iNDQuOTg0NCIgcng9IjIuNSIgcnk9IjIuNSIgc3R5bGU9InN0cm9rZTojMTgxODE4O3N0cm9rZS13aWR0aDowLjU7IiB3aWR0aD0iMTczIiB4PSIxMzYxLjUiIHk9IjI1MSIvPjxyZWN0IGZpbGw9IiNGMUYxRjEiIGhlaWdodD0iMTAiIHN0eWxlPSJzdHJva2U6IzE4MTgxODtzdHJva2Utd2lkdGg6MC41OyIgd2lkdGg9IjE1IiB4PSIxNTE0LjUiIHk9IjI1NiIvPjxyZWN0IGZpbGw9IiNGMUYxRjEiIGhlaWdodD0iMiIgc3R5bGU9InN0cm9rZTojMTgxODE4O3N0cm9rZS13aWR0aDowLjU7IiB3aWR0aD0iNCIgeD0iMTUxMi41IiB5PSIyNTgiLz48cmVjdCBmaWxsPSIjRjFGMUYxIiBoZWlnaHQ9IjIiIHN0eWxlPSJzdHJva2U6IzE4MTgxODtzdHJva2Utd2lkdGg6MC41OyIgd2lkdGg9IjQiIHg9IjE1MTIuNSIgeT0iMjYyIi8+PHRleHQgZmlsbD0iIzAwMDAwMCIgZm9udC1mYW1pbHk9InNhbnMtc2VyaWYiIGZvbnQtc2l6ZT0iMTQiIGxlbmd0aEFkanVzdD0ic3BhY2luZyIgdGV4dExlbmd0aD0iMTMzIiB4PSIxMzc2LjUiIHk9IjI4NC4yMzQ0Ij5BbmFseXRpY3MgRGFzaGJvYXJkPC90ZXh0PjwvZz48IS0tZW50aXR5IERvY01hbmFnZW1lbnQtLT48ZyBpZD0iZWxlbV9Eb2NNYW5hZ2VtZW50Ij48cmVjdCBmaWxsPSIjRjFGMUYxIiBoZWlnaHQ9IjQ0Ljk4NDQiIHJ4PSIyLjUiIHJ5PSIyLjUiIHN0eWxlPSJzdHJva2U6IzE4MTgxODtzdHJva2Utd2lkdGg6MC41OyIgd2lkdGg9IjE2NyIgeD0iOTI2LjUiIHk9IjI1MSIvPjxyZWN0IGZpbGw9IiNGMUYxRjEiIGhlaWdodD0iMTAiIHN0eWxlPSJzdHJva2U6IzE4MTgxODtzdHJva2Utd2lkdGg6MC41OyIgd2lkdGg9IjE1IiB4PSIxMDczLjUiIHk9IjI1NiIvPjxyZWN0IGZpbGw9IiNGMUYxRjEiIGhlaWdodD0iMiIgc3R5bGU9InN0cm9rZTojMTgxODE4O3N0cm9rZS13aWR0aDowLjU7IiB3aWR0aD0iNCIgeD0iMTA3MS41IiB5PSIyNTgiLz48cmVjdCBmaWxsPSIjRjFGMUYxIiBoZWlnaHQ9IjIiIHN0eWxlPSJzdHJva2U6IzE4MTgxODtzdHJva2Utd2lkdGg6MC41OyIgd2lkdGg9IjQiIHg9IjEwNzEuNSIgeT0iMjYyIi8+PHRleHQgZmlsbD0iIzAwMDAwMCIgZm9udC1mYW1pbHk9InNhbnMtc2VyaWYiIGZvbnQtc2l6ZT0iMTQiIGxlbmd0aEFkanVzdD0ic3BhY2luZyIgdGV4dExlbmd0aD0iMTI3IiB4PSI5NDEuNSIgeT0iMjg0LjIzNDQiPkRvY3RvcnMgTWFuYWdlbWVudDwvdGV4dD48L2c+PCEtLWVudGl0eSBOdXJzZU1hbmFnZW1lbnQtLT48ZyBpZD0iZWxlbV9OdXJzZU1hbmFnZW1lbnQiPjxyZWN0IGZpbGw9IiNGMUYxRjEiIGhlaWdodD0iNDQuOTg0NCIgcng9IjIuNSIgcnk9IjIuNSIgc3R5bGU9InN0cm9rZTojMTgxODE4O3N0cm9rZS13aWR0aDowLjU7IiB3aWR0aD0iMTYwIiB4PSIxMTI5IiB5PSIyNTEiLz48cmVjdCBmaWxsPSIjRjFGMUYxIiBoZWlnaHQ9IjEwIiBzdHlsZT0ic3Ryb2tlOiMxODE4MTg7c3Ryb2tlLXdpZHRoOjAuNTsiIHdpZHRoPSIxNSIgeD0iMTI2OSIgeT0iMjU2Ii8+PHJlY3QgZmlsbD0iI0YxRjFGMSIgaGVpZ2h0PSIyIiBzdHlsZT0ic3Ryb2tlOiMxODE4MTg7c3Ryb2tlLXdpZHRoOjAuNTsiIHdpZHRoPSI0IiB4PSIxMjY3IiB5PSIyNTgiLz48cmVjdCBmaWxsPSIjRjFGMUYxIiBoZWlnaHQ9IjIiIHN0eWxlPSJzdHJva2U6IzE4MTgxODtzdHJva2Utd2lkdGg6MC41OyIgd2lkdGg9IjQiIHg9IjEyNjciIHk9IjI2MiIvPjx0ZXh0IGZpbGw9IiMwMDAwMDAiIGZvbnQtZmFtaWx5PSJzYW5zLXNlcmlmIiBmb250LXNpemU9IjE0IiBsZW5ndGhBZGp1c3Q9InNwYWNpbmciIHRleHRMZW5ndGg9IjEyMCIgeD0iMTE0NCIgeT0iMjg0LjIzNDQiPk51cnNlcyBNYW5hZ2VtZW50PC90ZXh0PjwvZz48IS0tZW50aXR5IFNldHRpbmdzLS0+PGcgaWQ9ImVsZW1fU2V0dGluZ3MiPjxyZWN0IGZpbGw9IiNGMUYxRjEiIGhlaWdodD0iNDQuOTg0NCIgcng9IjIuNSIgcnk9IjIuNSIgc3R5bGU9InN0cm9rZTojMTgxODE4O3N0cm9rZS13aWR0aDowLjU7IiB3aWR0aD0iOTYiIHg9Ijc5NSIgeT0iMjUxIi8+PHJlY3QgZmlsbD0iI0YxRjFGMSIgaGVpZ2h0PSIxMCIgc3R5bGU9InN0cm9rZTojMTgxODE4O3N0cm9rZS13aWR0aDowLjU7IiB3aWR0aD0iMTUiIHg9Ijg3MSIgeT0iMjU2Ii8+PHJlY3QgZmlsbD0iI0YxRjFGMSIgaGVpZ2h0PSIyIiBzdHlsZT0ic3Ryb2tlOiMxODE4MTg7c3Ryb2tlLXdpZHRoOjAuNTsiIHdpZHRoPSI0IiB4PSI4NjkiIHk9IjI1OCIvPjxyZWN0IGZpbGw9IiNGMUYxRjEiIGhlaWdodD0iMiIgc3R5bGU9InN0cm9rZTojMTgxODE4O3N0cm9rZS13aWR0aDowLjU7IiB3aWR0aD0iNCIgeD0iODY5IiB5PSIyNjIiLz48dGV4dCBmaWxsPSIjMDAwMDAwIiBmb250LWZhbWlseT0ic2Fucy1zZXJpZiIgZm9udC1zaXplPSIxNCIgbGVuZ3RoQWRqdXN0PSJzcGFjaW5nIiB0ZXh0TGVuZ3RoPSI1NiIgeD0iODEwIiB5PSIyODQuMjM0NCI+U2V0dGluZ3M8L3RleHQ+PC9nPjwhLS1lbnRpdHkgUGF0REItLT48ZyBpZD0iZWxlbV9QYXREQiI+PHBhdGggZD0iTTI0NDUsMjYxLjUgQzI0NDUsMjUxLjUgMjUxMSwyNTEuNSAyNTExLDI1MS41IEMyNTExLDI1MS41IDI1NzcsMjUxLjUgMjU3NywyNjEuNSBMMjU3NywyODUuNDg0NCBDMjU3NywyOTUuNDg0NCAyNTExLDI5NS40ODQ0IDI1MTEsMjk1LjQ4NDQgQzI1MTEsMjk1LjQ4NDQgMjQ0NSwyOTUuNDg0NCAyNDQ1LDI4NS40ODQ0IEwyNDQ1LDI2MS41ICIgZmlsbD0iI0YxRjFGMSIgc3R5bGU9InN0cm9rZTojMTgxODE4O3N0cm9rZS13aWR0aDowLjU7Ii8+PHBhdGggZD0iTTI0NDUsMjYxLjUgQzI0NDUsMjcxLjUgMjUxMSwyNzEuNSAyNTExLDI3MS41IEMyNTExLDI3MS41IDI1NzcsMjcxLjUgMjU3NywyNjEuNSAiIGZpbGw9Im5vbmUiIHN0eWxlPSJzdHJva2U6IzE4MTgxODtzdHJva2Utd2lkdGg6MC41OyIvPjx0ZXh0IGZpbGw9IiMwMDAwMDAiIGZvbnQtZmFtaWx5PSJzYW5zLXNlcmlmIiBmb250LXNpemU9IjE0IiBsZW5ndGhBZGp1c3Q9InNwYWNpbmciIHRleHRMZW5ndGg9IjExMiIgeD0iMjQ1NSIgeT0iMjg4LjczNDQiPlBhdGllbnQgRGF0YWJhc2U8L3RleHQ+PC9nPjwhLS1lbnRpdHkgRG9jREItLT48ZyBpZD0iZWxlbV9Eb2NEQiI+PHBhdGggZD0iTTI2MTIuNSwyNjEuNSBDMjYxMi41LDI1MS41IDI2NzUsMjUxLjUgMjY3NSwyNTEuNSBDMjY3NSwyNTEuNSAyNzM3LjUsMjUxLjUgMjczNy41LDI2MS41IEwyNzM3LjUsMjg1LjQ4NDQgQzI3MzcuNSwyOTUuNDg0NCAyNjc1LDI5NS40ODQ0IDI2NzUsMjk1LjQ4NDQgQzI2NzUsMjk1LjQ4NDQgMjYxMi41LDI5NS40ODQ0IDI2MTIuNSwyODUuNDg0NCBMMjYxMi41LDI2MS41ICIgZmlsbD0iI0YxRjFGMSIgc3R5bGU9InN0cm9rZTojMTgxODE4O3N0cm9rZS13aWR0aDowLjU7Ii8+PHBhdGggZD0iTTI2MTIuNSwyNjEuNSBDMjYxMi41LDI3MS41IDI2NzUsMjcxLjUgMjY3NSwyNzEuNSBDMjY3NSwyNzEuNSAyNzM3LjUsMjcxLjUgMjczNy41LDI2MS41ICIgZmlsbD0ibm9uZSIgc3R5bGU9InN0cm9rZTojMTgxODE4O3N0cm9rZS13aWR0aDowLjU7Ii8+PHRleHQgZmlsbD0iIzAwMDAwMCIgZm9udC1mYW1pbHk9InNhbnMtc2VyaWYiIGZvbnQtc2l6ZT0iMTQiIGxlbmd0aEFkanVzdD0ic3BhY2luZyIgdGV4dExlbmd0aD0iMTA1IiB4PSIyNjIyLjUiIHk9IjI4OC43MzQ0Ij5Eb2N0b3IgRGF0YWJhc2U8L3RleHQ+PC9nPjwhLS1lbnRpdHkgTnVyc2VEQi0tPjxnIGlkPSJlbGVtX051cnNlREIiPjxwYXRoIGQ9Ik0yNzczLDI2MS41IEMyNzczLDI1MS41IDI4MzIsMjUxLjUgMjgzMiwyNTEuNSBDMjgzMiwyNTEuNSAyODkxLDI1MS41IDI4OTEsMjYxLjUgTDI4OTEsMjg1LjQ4NDQgQzI4OTEsMjk1LjQ4NDQgMjgzMiwyOTUuNDg0NCAyODMyLDI5NS40ODQ0IEMyODMyLDI5NS40ODQ0IDI3NzMsMjk1LjQ4NDQgMjc3MywyODUuNDg0NCBMMjc3MywyNjEuNSAiIGZpbGw9IiNGMUYxRjEiIHN0eWxlPSJzdHJva2U6IzE4MTgxODtzdHJva2Utd2lkdGg6MC41OyIvPjxwYXRoIGQ9Ik0yNzczLDI2MS41IEMyNzczLDI3MS41IDI4MzIsMjcxLjUgMjgzMiwyNzEuNSBDMjgzMiwyNzEuNSAyODkxLDI3MS41IDI4OTEsMjYxLjUgIiBmaWxsPSJub25lIiBzdHlsZT0ic3Ryb2tlOiMxODE4MTg7c3Ryb2tlLXdpZHRoOjAuNTsiLz48dGV4dCBmaWxsPSIjMDAwMDAwIiBmb250LWZhbWlseT0ic2Fucy1zZXJpZiIgZm9udC1zaXplPSIxNCIgbGVuZ3RoQWRqdXN0PSJzcGFjaW5nIiB0ZXh0TGVuZ3RoPSI5OCIgeD0iMjc4MyIgeT0iMjg4LjczNDQiPk51cnNlIERhdGFiYXNlPC90ZXh0PjwvZz48IS0tZW50aXR5IEFsZXJ0REItLT48ZyBpZD0iZWxlbV9BbGVydERCIj48cGF0aCBkPSJNMjkyNi41LDI2MS41IEMyOTI2LjUsMjUxLjUgMjk4MiwyNTEuNSAyOTgyLDI1MS41IEMyOTgyLDI1MS41IDMwMzcuNSwyNTEuNSAzMDM3LjUsMjYxLjUgTDMwMzcuNSwyODUuNDg0NCBDMzAzNy41LDI5NS40ODQ0IDI5ODIsMjk1LjQ4NDQgMjk4MiwyOTUuNDg0NCBDMjk4MiwyOTUuNDg0NCAyOTI2LjUsMjk1LjQ4NDQgMjkyNi41LDI4NS40ODQ0IEwyOTI2LjUsMjYxLjUgIiBmaWxsPSIjRjFGMUYxIiBzdHlsZT0ic3Ryb2tlOiMxODE4MTg7c3Ryb2tlLXdpZHRoOjAuNTsiLz48cGF0aCBkPSJNMjkyNi41LDI2MS41IEMyOTI2LjUsMjcxLjUgMjk4MiwyNzEuNSAyOTgyLDI3MS41IEMyOTgyLDI3MS41IDMwMzcuNSwyNzEuNSAzMDM3LjUsMjYxLjUgIiBmaWxsPSJub25lIiBzdHlsZT0ic3Ryb2tlOiMxODE4MTg7c3Ryb2tlLXdpZHRoOjAuNTsiLz48dGV4dCBmaWxsPSIjMDAwMDAwIiBmb250LWZhbWlseT0ic2Fucy1zZXJpZiIgZm9udC1zaXplPSIxNCIgbGVuZ3RoQWRqdXN0PSJzcGFjaW5nIiB0ZXh0TGVuZ3RoPSI5MSIgeD0iMjkzNi41IiB5PSIyODguNzM0NCI+QWxlcnQgSGlzdG9yeTwvdGV4dD48L2c+PCEtLWVudGl0eSBTY2hlZHVsZURCLS0+PGcgaWQ9ImVsZW1fU2NoZWR1bGVEQiI+PHBhdGggZD0iTTIyNzAuNSwyNjEuNSBDMjI3MC41LDI1MS41IDIzNDAsMjUxLjUgMjM0MCwyNTEuNSBDMjM0MCwyNTEuNSAyNDA5LjUsMjUxLjUgMjQwOS41LDI2MS41IEwyNDA5LjUsMjg1LjQ4NDQgQzI0MDkuNSwyOTUuNDg0NCAyMzQwLDI5NS40ODQ0IDIzNDAsMjk1LjQ4NDQgQzIzNDAsMjk1LjQ4NDQgMjI3MC41LDI5NS40ODQ0IDIyNzAuNSwyODUuNDg0NCBMMjI3MC41LDI2MS41ICIgZmlsbD0iI0YxRjFGMSIgc3R5bGU9InN0cm9rZTojMTgxODE4O3N0cm9rZS13aWR0aDowLjU7Ii8+PHBhdGggZD0iTTIyNzAuNSwyNjEuNSBDMjI3MC41LDI3MS41IDIzNDAsMjcxLjUgMjM0MCwyNzEuNSBDMjM0MCwyNzEuNSAyNDA5LjUsMjcxLjUgMjQwOS41LDI2MS41ICIgZmlsbD0ibm9uZSIgc3R5bGU9InN0cm9rZTojMTgxODE4O3N0cm9rZS13aWR0aDowLjU7Ii8+PHRleHQgZmlsbD0iIzAwMDAwMCIgZm9udC1mYW1pbHk9InNhbnMtc2VyaWYiIGZvbnQtc2l6ZT0iMTQiIGxlbmd0aEFkanVzdD0ic3BhY2luZyIgdGV4dExlbmd0aD0iMTE5IiB4PSIyMjgwLjUiIHk9IjI4OC43MzQ0Ij5TY2hlZHVsZSBEYXRhYmFzZTwvdGV4dD48L2c+PCEtLWxpbmsgSFJNIHRvIEVELS0+PCEtLWxpbmsgR1BTUCB0byBBbGFybVItLT48IS0tbGluayBCUE0gdG8gQWxhcm1SLS0+PCEtLWxpbmsgUGF0aWVudCBXYXRjaCB0byBOdXJzZSBXYXRjaCBBcHAtLT48ZyBpZD0ibGlua19QYXRpZW50IFdhdGNoX051cnNlIFdhdGNoIEFwcCI+PHBhdGggZD0iTTM0ODcuNzk3NiwxMTguNSBDMzQ4Ni44NzIyLDExOC41IDM0ODUuODc5NiwxMTguNSAzNDg0LjgyMDgsMTE4LjUgQzM0ODIuNzAzMywxMTguNSAzNDgwLjMyMTMsMTE4LjUgMzQ3Ny42ODM4LDExOC41IEMzNDY3LjEzNDEsMTE4LjUgMzQ1Mi40OTc5LDExOC41IDM0MzQuMzU4OSwxMTguNSBDMzM5OC4wODA5LDExOC41IDMzNDcuNzkxNywxMTguNSAzMjg4LjE2MDksMTE4LjUgQzMxNjguODk5NCwxMTguNSAzMDEyLjI3MTMsMTE4LjUgMjg1NS42MzI1LDExOC41IEMyNjk4Ljk5MzcsMTE4LjUgMjU0Mi4zNDQ0LDExOC41IDI0MjMuMDQwMywxMTguNSBDMjM2My4zODgzLDExOC41IDIzMTMuMDcyNiwxMTguNSAyMjc2Ljc2MjcsMTE4LjUgQzIyNTguNjA3OCwxMTguNSAyMjQzLjk1NDMsMTE4LjUgMjIzMy4zODU5LDExOC41IEMyMjMwLjc0MzgsMTE4LjUgMjIyOC4zNTcxLDExOC41IDIyMjYuMjM0NywxMTguNSBDMjIyNS4xNzM2LDExOC41IDIyMjQuMTc4NSwxMTguNSAyMjIzLjI1MDcsMTE4LjUgQzIyMjMuMDE4OCwxMTguNSAyMjI4Ljc5MSwxMTguNSAyMjI4LjU2NzUsMTE4LjUgIiBmaWxsPSJub25lIiBpZD0iUGF0aWVudCBXYXRjaC10by1OdXJzZSBXYXRjaCBBcHAiIHN0eWxlPSJzdHJva2U6IzE4MTgxODtzdHJva2Utd2lkdGg6MS4wOyIvPjxwb2x5Z29uIGZpbGw9IiMxODE4MTgiIHBvaW50cz0iMjIyMi41Njc1LDExOC41LDIyMzEuNTY3NSwxMjIuNSwyMjI3LjU2NzUsMTE4LjUsMjIzMS41Njc1LDExNC41LDIyMjIuNTY3NSwxMTguNSIgc3R5bGU9InN0cm9rZTojMTgxODE4O3N0cm9rZS13aWR0aDoxLjA7Ii8+PHRleHQgZmlsbD0iIzAwMDAwMCIgZm9udC1mYW1pbHk9InNhbnMtc2VyaWYiIGZvbnQtc2l6ZT0iMTMiIGxlbmd0aEFkanVzdD0ic3BhY2luZyIgdGV4dExlbmd0aD0iMTk3IiB4PSIyNzU3IiB5PSIxMTMuNzg5MSI+U2VuZHMgQWxlcnRzLCBHUFMsIEhlYXJ0IFJhdGU8L3RleHQ+PC9nPjwhLS1saW5rIE51cnNlIFdhdGNoIEFwcCB0byBQYXRpZW50IFdhdGNoLS0+PGcgaWQ9ImxpbmtfTnVyc2UgV2F0Y2ggQXBwX1BhdGllbnQgV2F0Y2giPjxwYXRoIGQ9Ik0yMjIzLjI1MDcsMTE4LjUgQzIyMjQuMTc4NSwxMTguNSAyMjI1LjE3MzYsMTE4LjUgMjIyNi4yMzQ3LDExOC41IEMyMjI4LjM1NzEsMTE4LjUgMjIzMC43NDM4LDExOC41IDIyMzMuMzg1OSwxMTguNSBDMjI0My45NTQzLDExOC41IDIyNTguNjA3OCwxMTguNSAyMjc2Ljc2MjcsMTE4LjUgQzIzMTMuMDcyNiwxMTguNSAyMzYzLjM4ODMsMTE4LjUgMjQyMy4wNDAzLDExOC41IEMyNTQyLjM0NDQsMTE4LjUgMjY5OC45OTM3LDExOC41IDI4NTUuNjMyNSwxMTguNSBDMzAxMi4yNzEzLDExOC41IDMxNjguODk5NCwxMTguNSAzMjg4LjE2MDksMTE4LjUgQzMzNDcuNzkxNywxMTguNSAzMzk4LjA4MDksMTE4LjUgMzQzNC4zNTg5LDExOC41IEMzNDUyLjQ5NzksMTE4LjUgMzQ2Ny4xMzQxLDExOC41IDM0NzcuNjgzOCwxMTguNSBDMzQ4MC4zMjEzLDExOC41IDM0ODIuNzAzMywxMTguNSAzNDg0LjgyMDgsMTE4LjUgQzM0ODUuODc5NiwxMTguNSAzNDg2Ljg3MjIsMTE4LjUgMzQ4Ny43OTc2LDExOC41IEMzNDg4LjAyODksMTE4LjUgMzQ4Mi4yNTYsMTE4LjUgMzQ4Mi40Nzg5LDExOC41ICIgZmlsbD0ibm9uZSIgaWQ9Ik51cnNlIFdhdGNoIEFwcC10by1QYXRpZW50IFdhdGNoIiBzdHlsZT0ic3Ryb2tlOiMxODE4MTg7c3Ryb2tlLXdpZHRoOjEuMDsiLz48cG9seWdvbiBmaWxsPSIjMTgxODE4IiBwb2ludHM9IjM0ODguNDc4OSwxMTguNSwzNDc5LjQ3ODksMTE0LjUsMzQ4My40Nzg5LDExOC41LDM0NzkuNDc4OSwxMjIuNSwzNDg4LjQ3ODksMTE4LjUiIHN0eWxlPSJzdHJva2U6IzE4MTgxODtzdHJva2Utd2lkdGg6MS4wOyIvPjx0ZXh0IGZpbGw9IiMwMDAwMDAiIGZvbnQtZmFtaWx5PSJzYW5zLXNlcmlmIiBmb250LXNpemU9IjEzIiBsZW5ndGhBZGp1c3Q9InNwYWNpbmciIHRleHRMZW5ndGg9Ijk0IiB4PSIyODA4LjUiIHk9IjExMy43ODkxIj5UcmlnZ2VyIEFsYXJtczwvdGV4dD48L2c+PCEtLWxpbmsgUGF0aWVudCBXYXRjaCB0byBQYXREQi0tPjxnIGlkPSJsaW5rX1BhdGllbnQgV2F0Y2hfUGF0REIiPjxwYXRoIGQ9Ik0zNDg4LjYwMTYsMTIxLjc3OTkgQzM0ODguNDM2NywxMjEuODI0MSAzNDg4LjI2OTQsMTIxLjg2ODggMzQ4OC4wOTk5LDEyMS45MTQyIEMzNDg3Ljc2MDksMTIyLjAwNDggMzQ4Ny40MTI4LDEyMi4wOTc4IDM0ODcuMDU1NiwxMjIuMTkzMSBDMzQ4MS4zNDEzLDEyMy43MTc2IDM0NzMuMzE3NiwxMjUuODI5MiAzNDYzLjM4NTIsMTI4LjM2OTEgQzM0NDMuNTIwMywxMzMuNDQ4OCAzNDE2LjAyMDYsMTQwLjI0MTIgMzM4NC4wOTEzLDE0Ny40NzUgQzMzMjAuMjMyNSwxNjEuOTQyNSAzMjM4LjY1NSwxNzguMTc1IDMxNjUsMTg2IEMzMTMzLjUxLDE4OS4zNSAyNjI0LjM4LDE4Mi4xNyAyNTk1LDE5NCBDMjU2Ni4xMiwyMDUuNjMgMjU0NC45NTk3LDIyNy41MzIyIDI1MjkuOTM5NywyNDYuNTQyMiAiIGZpbGw9Im5vbmUiIGlkPSJQYXRpZW50IFdhdGNoLXRvLVBhdERCIiBzdHlsZT0ic3Ryb2tlOiMxODE4MTg7c3Ryb2tlLXdpZHRoOjEuMDsiLz48cG9seWdvbiBmaWxsPSIjMTgxODE4IiBwb2ludHM9IjI1MjYuMjIsMjUxLjI1LDI1MzQuOTM4MSwyNDYuNjY4MSwyNTI5LjMxOTgsMjQ3LjMyNjgsMjUyOC42NjEsMjQxLjcwODQsMjUyNi4yMiwyNTEuMjUiIHN0eWxlPSJzdHJva2U6IzE4MTgxODtzdHJva2Utd2lkdGg6MS4wOyIvPjx0ZXh0IGZpbGw9IiMwMDAwMDAiIGZvbnQtZmFtaWx5PSJzYW5zLXNlcmlmIiBmb250LXNpemU9IjEzIiBsZW5ndGhBZGp1c3Q9InNwYWNpbmciIHRleHRMZW5ndGg9IjEyOCIgeD0iMzI2NyIgeT0iMTg0LjI4OTEiPlN0b3JlcyBQYXRpZW50IERhdGE8L3RleHQ+PC9nPjwhLS1saW5rIE51cnNlIFdhdGNoIEFwcCB0byBOdXJzZSBNb2JpbGUgQXBwLS0+PGcgaWQ9ImxpbmtfTnVyc2UgV2F0Y2ggQXBwX051cnNlIE1vYmlsZSBBcHAiPjxwYXRoIGQ9Ik0yMjIyLjcyLDExOS41OTE3IEMyMjIzLjc1NywxMTkuNjA0NSAyMjI0Ljg4MjksMTE5LjYxODkgMjIyNi4wOTYxLDExOS42MzUgQzIyMjguNTIyNSwxMTkuNjY3MiAyMjMxLjI5NzcsMTE5LjcwNjUgMjIzNC40MDY4LDExOS43NTQgQzIyNDYuODQzMSwxMTkuOTQ0MSAyMjY0LjYyMTYsMTIwLjI2NjYgMjI4Ni43ODYzLDEyMC44MDI1IEMyMzMxLjExNTYsMTIxLjg3NDQgMjM5Mi45OSwxMjMuOCAyNDY0Ljc2MjUsMTI3LjIyNzUgQzI2MDguMzA3NSwxMzQuMDgyNSAyNzkxLjQ0NSwxNDYuOTQ1IDI5NTMsMTcxIEMyOTk4LjExLDE3Ny43MiAzMDE3LjA1LDE2NS45NCAzMDUzLDE5NCBDMzA2Ny45NSwyMDUuNjcgMzA3Ny44MDI1LDIyNC40NTI1IDMwODMuOTg3NSwyNDAuNzE4OCBDMzA4NC4xODA4LDI0MS4yMjcxIDMwODQuMzcwNSwyNDEuNzMyOSAzMDg0LjU1NjYsMjQyLjIzNiBDMzA4NC42NDk3LDI0Mi40ODc2IDMwODQuNzQxOSwyNDIuNzM4NSAzMDg0LjgzMzIsMjQyLjk4ODYgQzMwODQuODc4OSwyNDMuMTEzNyAzMDgyLjg3OSwyMzcuNTk4IDMwODIuOTI0MiwyMzcuNzIyNyAiIGZpbGw9Im5vbmUiIGlkPSJOdXJzZSBXYXRjaCBBcHAtdG8tTnVyc2UgTW9iaWxlIEFwcCIgc3R5bGU9InN0cm9rZTojMTgxODE4O3N0cm9rZS13aWR0aDoxLjA7Ii8+PHBvbHlnb24gZmlsbD0iIzE4MTgxOCIgcG9pbnRzPSIzMDg0Ljk2OTYsMjQzLjM2MzMsMzA4NS42NjE5LDIzMy41Mzg4LDMwODMuMjY1MSwyMzguNjYyOCwzMDc4LjE0MTEsMjM2LjI2NTksMzA4NC45Njk2LDI0My4zNjMzIiBzdHlsZT0ic3Ryb2tlOiMxODE4MTg7c3Ryb2tlLXdpZHRoOjEuMDsiLz48dGV4dCBmaWxsPSIjMDAwMDAwIiBmb250LWZhbWlseT0ic2Fucy1zZXJpZiIgZm9udC1zaXplPSIxMyIgbGVuZ3RoQWRqdXN0PSJzcGFjaW5nIiB0ZXh0TGVuZ3RoPSIxMTUiIHg9IjMwNDEiIHk9IjE4NC4yODkxIj5TeW5jIFBhdGllbnQgRGF0YTwvdGV4dD48L2c+PCEtLWxpbmsgTnVyc2UgV2F0Y2ggQXBwIHRvIEFsZXJ0REItLT48ZyBpZD0ibGlua19OdXJzZSBXYXRjaCBBcHBfQWxlcnREQiI+PHBhdGggZD0iTTIyMjIuNDAyLDEyMC40OTI1IEMyMjIyLjg1OTUsMTIwLjU0NjIgMjIyMy4zMzUsMTIwLjYwMjEgMjIyMy44MjgyLDEyMC42NjAxIEMyMjI1LjgwMTEsMTIwLjg5MTkgMjIyOC4wNTc4LDEyMS4xNTY3IDIyMzAuNTg2MywxMjEuNDUzMiBDMjI0MC43MDA0LDEyMi42Mzg4IDIyNTUuMTYzOSwxMjQuMzI4OSAyMjczLjIwOTEsMTI2LjQyMjggQzIzMDkuMjk5NCwxMzAuNjEwNiAyMzU5LjcxNjMsMTM2LjQxMzggMjQxOC4zMTc1LDE0My4wMjc1IEMyNTM1LjUyLDE1Ni4yNTUgMjY4NS40NiwxNzIuNzI1IDI4MTksMTg2IEMyODM4Ljk4LDE4Ny45OSAyODkwLjk3LDE4NS4xNyAyOTA5LDE5NCBDMjkzNC45MSwyMDYuNjggMjk1Mi44MTc3LDIyNy44MzEgMjk2NS41ODc3LDI0Ni40NjEgIiBmaWxsPSJub25lIiBpZD0iTnVyc2UgV2F0Y2ggQXBwLXRvLUFsZXJ0REIiIHN0eWxlPSJzdHJva2U6IzE4MTgxODtzdHJva2Utd2lkdGg6MS4wOyIvPjxwb2x5Z29uIGZpbGw9IiMxODE4MTgiIHBvaW50cz0iMjk2OC45OCwyNTEuNDEsMjk2Ny4xOTA5LDI0MS43MjUsMjk2Ni4xNTMxLDI0Ny4yODU5LDI5NjAuNTkyMiwyNDYuMjQ4MSwyOTY4Ljk4LDI1MS40MSIgc3R5bGU9InN0cm9rZTojMTgxODE4O3N0cm9rZS13aWR0aDoxLjA7Ii8+PHRleHQgZmlsbD0iIzAwMDAwMCIgZm9udC1mYW1pbHk9InNhbnMtc2VyaWYiIGZvbnQtc2l6ZT0iMTMiIGxlbmd0aEFkanVzdD0ic3BhY2luZyIgdGV4dExlbmd0aD0iMTI4IiB4PSIyODIwIiB5PSIxODQuMjg5MSI+U3RvcmUgQWxlcnQgSGlzdG9yeTwvdGV4dD48L2c+PCEtLWxpbmsgTnVyc2UgV2F0Y2ggQXBwIHRvIFNjaGVkdWxlREItLT48ZyBpZD0ibGlua19OdXJzZSBXYXRjaCBBcHBfU2NoZWR1bGVEQiI+PHBhdGggZD0iTTIyMjIuMTc5MywxMjQuMTc2OSBDMjIyMi4yNTAyLDEyNC4yMTkgMjIyMi4zMjE2LDEyNC4yNjE0IDIyMjIuMzkzMywxMjQuMzA0MSBDMjIyNi45ODI4LDEyNy4wMzQ0IDIyMzMuMTE1NiwxMzAuODMzOCAyMjM5LjkyNjMsMTM1LjQ1MjUgQzIyNTMuNTQ3NSwxNDQuNjkgMjI2OS44OCwxNTcuMjA1IDIyODIsMTcxIEMyMzAzLjcsMTk1LjcgMjMxOC42NzA2LDIyNC4zMjA4IDIzMjguNTcwNiwyNDYuMDMwOCAiIGZpbGw9Im5vbmUiIGlkPSJOdXJzZSBXYXRjaCBBcHAtdG8tU2NoZWR1bGVEQiIgc3R5bGU9InN0cm9rZTojMTgxODE4O3N0cm9rZS13aWR0aDoxLjA7Ii8+PHBvbHlnb24gZmlsbD0iIzE4MTgxOCIgcG9pbnRzPSIyMzMxLjA2LDI1MS40OSwyMzMwLjk2NTMsMjQxLjY0MTYsMjMyOC45ODU1LDI0Ni45NDA3LDIzMjMuNjg2NCwyNDQuOTYwOSwyMzMxLjA2LDI1MS40OSIgc3R5bGU9InN0cm9rZTojMTgxODE4O3N0cm9rZS13aWR0aDoxLjA7Ii8+PHRleHQgZmlsbD0iIzAwMDAwMCIgZm9udC1mYW1pbHk9InNhbnMtc2VyaWYiIGZvbnQtc2l6ZT0iMTMiIGxlbmd0aEFkanVzdD0ic3BhY2luZyIgdGV4dExlbmd0aD0iMTUxIiB4PSIyMjk0IiB5PSIxODQuMjg5MSI+VXBkYXRlL0ZldGNoIFNjaGVkdWxlczwvdGV4dD48L2c+PCEtLWxpbmsgTnVyc2UgTW9iaWxlIEFwcCB0byBIb3NwaXRhbC9Eb2N0b3IgV2Vic2l0ZS0tPjxnIGlkPSJsaW5rX051cnNlIE1vYmlsZSBBcHBfSG9zcGl0YWwvRG9jdG9yIFdlYnNpdGUiPjxwYXRoIGQ9Ik0zMDg0LjkwODQsMjk2LjU5NDUgQzMwODQuODYzMiwyOTYuNjkzNCAzMDg0LjgxNzgsMjk2Ljc5MjUgMzA4NC43NzIyLDI5Ni44OTE2IEMzMDg0LjU4OTcsMjk3LjI4ODQgMzA4NC40MDQsMjk3LjY4NzUgMzA4NC4yMTUxLDI5OC4wODg3IEMzMDgzLjgzNzIsMjk4Ljg5MTEgMzA4My40NDY0LDI5OS43MDE4IDMwODMuMDQyNSwzMDAuNTE4NyBDMzA3Ni41OCwzMTMuNTkgMzA2Ni43NjUsMzI4LjI2IDMwNTMsMzM2IEMzMDI3LjMyLDM1MC40NCAyODE3LjEsMzM5LjQ0IDI3ODgsMzQ0IEMyNzY0LjI0LDM0Ny43MyAyNzU5Ljc0LDM1NS4xMSAyNzM2LDM1OSBDMjYwNy44MjUsMzc5Ljk4NSAyMzE3LjE1MjUsMzkyLjgyMjUgMjA1Ni43NTYzLDQwMC40MzI1IEMxOTI2LjU1ODEsNDA0LjIzNzUgMTgwMy45MjkxLDQwNi43MzU2IDE3MTIuOTY1OCw0MDguMjkxOSBDMTY2Ny40ODQxLDQwOS4wNyAxNjI5LjkxODksNDA5LjYxMjcgMTYwMy4yODIzLDQwOS45NjU1IEMxNTg5Ljk2NCw0MTAuMTQxOSAxNTc5LjM3NzgsNDEwLjI3MDggMTU3MS45MDAyLDQxMC4zNTggQzE1NzAuOTY1NSw0MTAuMzY4OSAxNTcwLjA3OTQsNDEwLjM3OTIgMTU2OS4yNDI2LDQxMC4zODg4IEMxNTY4LjgyNDIsNDEwLjM5MzYgMTU3NC40MTc3LDQxMC4zMjk5IDE1NzQuMDI0LDQxMC4zMzQ0ICIgZmlsbD0ibm9uZSIgaWQ9Ik51cnNlIE1vYmlsZSBBcHAtdG8tSG9zcGl0YWwvRG9jdG9yIFdlYnNpdGUiIHN0eWxlPSJzdHJva2U6IzE4MTgxODtzdHJva2Utd2lkdGg6MS4wOyIvPjxwb2x5Z29uIGZpbGw9IiMxODE4MTgiIHBvaW50cz0iMTU2OC4wMjQ0LDQxMC40MDI3LDE1NzcuMDY5NCw0MTQuMjk5OSwxNTczLjAyNDEsNDEwLjM0NTcsMTU3Ni45NzgzLDQwNi4zMDA1LDE1NjguMDI0NCw0MTAuNDAyNyIgc3R5bGU9InN0cm9rZTojMTgxODE4O3N0cm9rZS13aWR0aDoxLjA7Ii8+PHRleHQgZmlsbD0iIzAwMDAwMCIgZm9udC1mYW1pbHk9InNhbnMtc2VyaWYiIGZvbnQtc2l6ZT0iMTMiIGxlbmd0aEFkanVzdD0ic3BhY2luZyIgdGV4dExlbmd0aD0iMzIyIiB4PSIyNzg5IiB5PSIzNTcuMjg5MSI+RmV0Y2ggQWxlcnRzIEhpc3RvcnksIFBhdGllbnQgRGV0YWlscywgU2NoZWR1bGVzPC90ZXh0PjwvZz48IS0tbGluayBBZG1pbkxvZ2luIHRvIE5vdGlmaWNhdGlvbnMtLT48IS0tbGluayBEb2NMb2dpbiB0byBOb3RpZmljYXRpb25zLS0+PCEtLWxpbmsgUGF0REIgdG8gSG9zcGl0YWwvRG9jdG9yIFdlYnNpdGUtLT48ZyBpZD0ibGlua19QYXREQl9Ib3NwaXRhbC9Eb2N0b3IgV2Vic2l0ZSI+PHBhdGggZD0iTTI0ODkuOTksMjk1LjY0IEMyNDc0LjE3LDMxMC4wMSAyNDUxLjE0LDMyNy44NCAyNDI3LDMzNiBDMjM4NC40NywzNTAuMzcgMjA2Ny42MiwzMzkuMDIgMjAyMywzNDQgQzE5OTAuMDgsMzQ3LjY4IDE5ODIuNjYsMzUzLjUgMTk1MCwzNTkgQzE4NjQuOTI1LDM3My4zMjUgMTc2OC44Nzc1LDM4Ni4wMjUgMTY5My4yNjc1LDM5NS4yMjg4IEMxNjU1LjQ2MjUsMzk5LjgzMDYgMTYyMi43NjY5LDQwMy41NTg0IDE1OTkuMTA2OSw0MDYuMTc4MyBDMTU4Ny4yNzY5LDQwNy40ODgyIDE1NzcuNzA1OCw0MDguNTIxMSAxNTcwLjg4NDQsNDA5LjI0NzggQzE1NzAuMDMxNyw0MDkuMzM4NyAxNTY5LjIyMiw0MDkuNDI0NyAxNTY4LjQ1NjIsNDA5LjUwNTkgQzE1NjguMDczMyw0MDkuNTQ2NSAxNTczLjY2ODEsNDA4Ljk1NDYgMTU3My4zMDczLDQwOC45OTI4ICIgZmlsbD0ibm9uZSIgaWQ9IlBhdERCLXRvLUhvc3BpdGFsL0RvY3RvciBXZWJzaXRlIiBzdHlsZT0ic3Ryb2tlOiMxODE4MTg7c3Ryb2tlLXdpZHRoOjEuMDsiLz48cG9seWdvbiBmaWxsPSIjMTgxODE4IiBwb2ludHM9IjE1NjcuMzQwNiw0MDkuNjI0MSwxNTc2LjcxMTUsNDEyLjY1NDksMTU3Mi4zMTI4LDQwOS4wOTgsMTU3NS44Njk3LDQwNC42OTkzLDE1NjcuMzQwNiw0MDkuNjI0MSIgc3R5bGU9InN0cm9rZTojMTgxODE4O3N0cm9rZS13aWR0aDoxLjA7Ii8+PHRleHQgZmlsbD0iIzAwMDAwMCIgZm9udC1mYW1pbHk9InNhbnMtc2VyaWYiIGZvbnQtc2l6ZT0iMTMiIGxlbmd0aEFkanVzdD0ic3BhY2luZyIgdGV4dExlbmd0aD0iMTQ2IiB4PSIyMDI0IiB5PSIzNTcuMjg5MSI+Vmlldy9FZGl0IFBhdGllbnQgRGF0YTwvdGV4dD48L2c+PCEtLWxpbmsgRG9jREIgdG8gSG9zcGl0YWwvRG9jdG9yIFdlYnNpdGUtLT48ZyBpZD0ibGlua19Eb2NEQl9Ib3NwaXRhbC9Eb2N0b3IgV2Vic2l0ZSI+PHBhdGggZD0iTTI2NTUuMTgsMjk1LjYxIEMyNjQwLjIsMzA5Ljk3IDI2MTguMywzMjcuNzkgMjU5NSwzMzYgQzI1NTYuNjMsMzQ5LjUxIDIyNjkuMjQsMzM4LjA3IDIyMjksMzQ0IEMyMjA0LjM2LDM0Ny42MyAyMTk5LjUyLDM1NC42MSAyMTc1LDM1OSBDMjA0MC44NCwzODMuMDIgMTg4OC4xODc1LDM5NS44ODI1IDE3NjguNDA4OCw0MDIuNzQ2MyBDMTcwOC41MTk0LDQwNi4xNzgxIDE2NTYuODQ4NCw0MDguMTEwMyAxNjE5LjgxNjcsNDA5LjE4NzcgQzE2MDEuMzAwOSw0MDkuNzI2MyAxNTg2LjQ0NDgsNDEwLjA1MTMgMTU3Ni4wNTEyLDQxMC4yNDMxIEMxNTczLjQ1MjcsNDEwLjI5MTEgMTU3MS4xMzMyLDQxMC4zMzA4IDE1NjkuMTA1Miw0MTAuMzYzMyBDMTU2OC41OTgxLDQxMC4zNzE1IDE1NzQuMTA4Niw0MTAuMjg2MyAxNTczLjYzODIsNDEwLjI5MzYgIiBmaWxsPSJub25lIiBpZD0iRG9jREItdG8tSG9zcGl0YWwvRG9jdG9yIFdlYnNpdGUiIHN0eWxlPSJzdHJva2U6IzE4MTgxODtzdHJva2Utd2lkdGg6MS4wOyIvPjxwb2x5Z29uIGZpbGw9IiMxODE4MTgiIHBvaW50cz0iMTU2Ny42Mzg5LDQxMC4zODY1LDE1NzYuNjk5OCw0MTQuMjQ2NywxNTcyLjYzODMsNDEwLjMwOTEsMTU3Ni41NzU5LDQwNi4yNDc2LDE1NjcuNjM4OSw0MTAuMzg2NSIgc3R5bGU9InN0cm9rZTojMTgxODE4O3N0cm9rZS13aWR0aDoxLjA7Ii8+PHRleHQgZmlsbD0iIzAwMDAwMCIgZm9udC1mYW1pbHk9InNhbnMtc2VyaWYiIGZvbnQtc2l6ZT0iMTMiIGxlbmd0aEFkanVzdD0ic3BhY2luZyIgdGV4dExlbmd0aD0iMTQxIiB4PSIyMjMwIiB5PSIzNTcuMjg5MSI+Vmlldy9FZGl0IERvY3RvciBEYXRhPC90ZXh0PjwvZz48IS0tbGluayBOdXJzZURCIHRvIEhvc3BpdGFsL0RvY3RvciBXZWJzaXRlLS0+PGcgaWQ9ImxpbmtfTnVyc2VEQl9Ib3NwaXRhbC9Eb2N0b3IgV2Vic2l0ZSI+PHBhdGggZD0iTTI4MTMuMDcsMjk1LjU5IEMyNzk4LjczLDMwOS45MyAyNzc3LjY3LDMyNy43NSAyNzU1LDMzNiBDMjcyMC4xMiwzNDguNjkgMjQ1Ny41NywzMzcuNjIgMjQyMSwzNDQgQzI0MDAuMjMsMzQ3LjYzIDIzOTYuNjksMzU0Ljk3IDIzNzYsMzU5IEMyMjg3LjQxNSwzNzYuMjUgMjA4NS42NTI1LDM4OS4wNiAxOTA0LjgwNzUsMzk3LjU5IEMxODE0LjM4NSw0MDEuODU1IDE3MjkuMTkxOSw0MDUuMDUgMTY2NS45OSw0MDcuMTk1IEMxNjM0LjM4OTEsNDA4LjI2NzUgMTYwOC4yODU5LDQwOS4wNzc1IDE1ODkuNzc1OSw0MDkuNjI3NSBDMTU4MC41MjA4LDQwOS45MDI1IDE1NzMuMTY0LDQxMC4xMTI1IDE1NjcuOTY3NCw0MTAuMjU3OCBDMTU2Ny42NDI2LDQxMC4yNjY5IDE1NzMuMzI0LDQxMC4xMDg2IDE1NzMuMDE2MSw0MTAuMTE3MiAiIGZpbGw9Im5vbmUiIGlkPSJOdXJzZURCLXRvLUhvc3BpdGFsL0RvY3RvciBXZWJzaXRlIiBzdHlsZT0ic3Ryb2tlOiMxODE4MTg7c3Ryb2tlLXdpZHRoOjEuMDsiLz48cG9seWdvbiBmaWxsPSIjMTgxODE4IiBwb2ludHM9IjE1NjcuMDE4NCw0MTAuMjg0MywxNTc2LjEyNjQsNDE0LjAzMjEsMTU3Mi4wMTY1LDQxMC4xNDUxLDE1NzUuOTAzNiw0MDYuMDM1MiwxNTY3LjAxODQsNDEwLjI4NDMiIHN0eWxlPSJzdHJva2U6IzE4MTgxODtzdHJva2Utd2lkdGg6MS4wOyIvPjx0ZXh0IGZpbGw9IiMwMDAwMDAiIGZvbnQtZmFtaWx5PSJzYW5zLXNlcmlmIiBmb250LXNpemU9IjEzIiBsZW5ndGhBZGp1c3Q9InNwYWNpbmciIHRleHRMZW5ndGg9IjEzNSIgeD0iMjQyMiIgeT0iMzU3LjI4OTEiPlZpZXcvRWRpdCBOdXJzZSBEYXRhPC90ZXh0PjwvZz48IS0tbGluayBBbGVydERCIHRvIEhvc3BpdGFsL0RvY3RvciBXZWJzaXRlLS0+PGcgaWQ9ImxpbmtfQWxlcnREQl9Ib3NwaXRhbC9Eb2N0b3IgV2Vic2l0ZSI+PHBhdGggZD0iTTI5NjQuMjYsMjk1LjU2IEMyOTUwLjc3LDMwOS44OSAyOTMwLjg0LDMyNy43IDI5MDksMzM2IEMyODc3LjIxLDM0OC4wOCAyNjM2LjQxLDMzNy42MyAyNjAzLDM0NCBDMjU4My45NCwzNDcuNjMgMjU4MS4wMSwzNTUuMTMgMjU2MiwzNTkgQzI0NTMuNTEsMzgxLjEwNSAyMjA1LjgxNSwzOTMuOTUyNSAxOTgzLjczMjUsNDAxLjI4NzUgQzE4NzIuNjkxMyw0MDQuOTU1IDE3NjguMDUzMSw0MDcuMjQ0NCAxNjkwLjQyMDMsNDA4LjYyMzggQzE2NTEuNjAzOSw0MDkuMzEzNCAxNjE5LjUzODgsNDA5Ljc3NTYgMTU5Ni44MDA0LDQxMC4wNjg4IEMxNTg1LjQzMTEsNDEwLjIxNTQgMTU3Ni4zOTM1LDQxMC4zMTk4IDE1NzAuMDA5NSw0MTAuMzg5MiBDMTU2OS4yMTE1LDQxMC4zOTc5IDE1NzQuNDU0Niw0MTAuMzQyMiAxNTczLjc0MDIsNDEwLjM0OTggIiBmaWxsPSJub25lIiBpZD0iQWxlcnREQi10by1Ib3NwaXRhbC9Eb2N0b3IgV2Vic2l0ZSIgc3R5bGU9InN0cm9rZTojMTgxODE4O3N0cm9rZS13aWR0aDoxLjA7Ii8+PHBvbHlnb24gZmlsbD0iIzE4MTgxOCIgcG9pbnRzPSIxNTY3Ljc0MDUsNDEwLjQxMzYsMTU3Ni43ODI1LDQxNC4zMTc3LDE1NzIuNzQwMiw0MTAuMzYwNCwxNTc2LjY5NzQsNDA2LjMxODEsMTU2Ny43NDA1LDQxMC40MTM2IiBzdHlsZT0ic3Ryb2tlOiMxODE4MTg7c3Ryb2tlLXdpZHRoOjEuMDsiLz48dGV4dCBmaWxsPSIjMDAwMDAwIiBmb250LWZhbWlseT0ic2Fucy1zZXJpZiIgZm9udC1zaXplPSIxMyIgbGVuZ3RoQWRqdXN0PSJzcGFjaW5nIiB0ZXh0TGVuZ3RoPSIxMjciIHg9IjI2MDQiIHk9IjM1Ny4yODkxIj5WaWV3IEFsZXJ0cyBIaXN0b3J5PC90ZXh0PjwvZz48IS0tbGluayBTY2hlZHVsZURCIHRvIEhvc3BpdGFsL0RvY3RvciBXZWJzaXRlLS0+PGcgaWQ9ImxpbmtfU2NoZWR1bGVEQl9Ib3NwaXRhbC9Eb2N0b3IgV2Vic2l0ZSI+PHBhdGggZD0iTTIzMDEuNjMsMjk1LjU0IEMyMjczLjE0LDMwOS45NiAyMjMyLjgzLDMyNy44OSAyMTk1LDMzNiBDMjExMi40MSwzNTMuNyAxODk4LjY2LDMzMi40MSAxODE1LDM0NCBDMTc1Ny42OSwzNTEuOTM1IDE2OTQuNzgsMzY4LjE2NzUgMTY0NS42NjUsMzgyLjYwNzUgQzE2MjEuMTA3NSwzODkuODI3NSAxNTk5Ljk5ODgsMzk2LjU5OTQgMTU4NC43NjMxLDQwMS42NjE5IEMxNTgwLjk1NDIsNDAyLjkyNzUgMTU3Ny41MTI0LDQwNC4wODYzIDE1NzQuNDc1NSw0MDUuMTE4NSBDMTU3Mi45NTcxLDQwNS42MzQ3IDE1NzEuNTM5OSw0MDYuMTE5MSAxNTcwLjIyODYsNDA2LjU2OTUgQzE1NjkuNTczLDQwNi43OTQ3IDE1NjguOTQzOSw0MDcuMDExNCAxNTY4LjM0MTgsNDA3LjIxOTIgQzE1NjguMDQwOCw0MDcuMzIzMiAxNTY3Ljc0NjYsNDA3LjQyNDkgMTU2Ny40NTkyLDQwNy41MjQzIEMxNTY3LjMxNTUsNDA3LjU3NDEgMTU3Mi44NDI4LDQwNS42NTg4IDE1NzIuNzAyNSw0MDUuNzA3NCAiIGZpbGw9Im5vbmUiIGlkPSJTY2hlZHVsZURCLXRvLUhvc3BpdGFsL0RvY3RvciBXZWJzaXRlIiBzdHlsZT0ic3Ryb2tlOiMxODE4MTg7c3Ryb2tlLXdpZHRoOjEuMDsiLz48cG9seWdvbiBmaWxsPSIjMTgxODE4IiBwb2ludHM9IjE1NjcuMDMzMiw0MDcuNjcxOCwxNTc2Ljg0NjgsNDA4LjUwNDcsMTU3MS43NTc2LDQwNi4wMzQ4LDE1NzQuMjI3Niw0MDAuOTQ1NywxNTY3LjAzMzIsNDA3LjY3MTgiIHN0eWxlPSJzdHJva2U6IzE4MTgxODtzdHJva2Utd2lkdGg6MS4wOyIvPjx0ZXh0IGZpbGw9IiMwMDAwMDAiIGZvbnQtZmFtaWx5PSJzYW5zLXNlcmlmIiBmb250LXNpemU9IjEzIiBsZW5ndGhBZGp1c3Q9InNwYWNpbmciIHRleHRMZW5ndGg9IjEyOSIgeD0iMTgxNiIgeT0iMzU3LjI4OTEiPk1hbmFnZSBBcHBvaW50bWVudHM8L3RleHQ+PC9nPjwhLS1saW5rIEFuYWx5dGljcyB0byBIb3NwaXRhbC9Eb2N0b3IgV2Vic2l0ZS0tPjxnIGlkPSJsaW5rX0FuYWx5dGljc19Ib3NwaXRhbC9Eb2N0b3IgV2Vic2l0ZSI+PHBhdGggZD0iTTE0NzIuMTEsMjk2LjEgQzE0OTUuMDEsMzE3LjcyIDE1MjkuMTIsMzUyLjg2IDE1NTEsMzg5IEMxNTU1Ljk1LDM5Ny4xOCAxNTU3LjMzOTcsNDAzLjA2NDggMTU1Ny42NTk3LDQwNC40OTQ4ICIgZmlsbD0ibm9uZSIgaWQ9IkFuYWx5dGljcy10by1Ib3NwaXRhbC9Eb2N0b3IgV2Vic2l0ZSIgc3R5bGU9InN0cm9rZTojMTgxODE4O3N0cm9rZS13aWR0aDoxLjA7Ii8+PHBvbHlnb24gZmlsbD0iIzE4MTgxOCIgcG9pbnRzPSIxNTU4Ljk3LDQxMC4zNSwxNTYwLjkwODEsNDAwLjY5MzcsMTU1Ny44NzgxLDQwNS40NzA3LDE1NTMuMTAxMiw0MDIuNDQwNywxNTU4Ljk3LDQxMC4zNSIgc3R5bGU9InN0cm9rZTojMTgxODE4O3N0cm9rZS13aWR0aDoxLjA7Ii8+PHRleHQgZmlsbD0iIzAwMDAwMCIgZm9udC1mYW1pbHk9InNhbnMtc2VyaWYiIGZvbnQtc2l6ZT0iMTMiIGxlbmd0aEFkanVzdD0ic3BhY2luZyIgdGV4dExlbmd0aD0iMTYzIiB4PSIxNTMxIiB5PSIzNTcuMjg5MSI+VmlldyBBbmFseXRpY3MgRGFzaGJvYXJkPC90ZXh0PjwvZz48IS0tbGluayBBZG1pbkxvZ2luIHRvIEFuYWx5dGljcy0tPjxnIGlkPSJsaW5rX0FkbWluTG9naW5fQW5hbHl0aWNzIj48cGF0aCBkPSJNMTI2OC4yNSwxMzkuMiBDMTI4OS43NCwxNDcuNTUgMTMxMy43MSwxNTguMyAxMzM0LDE3MSBDMTM3MC4zOSwxOTMuNzcgMTQwMi4yMTc0LDIyNC4wNDg4IDE0MjMuNzM3NCwyNDYuMzg4OCAiIGZpbGw9Im5vbmUiIGlkPSJBZG1pbkxvZ2luLXRvLUFuYWx5dGljcyIgc3R5bGU9InN0cm9rZTojMTgxODE4O3N0cm9rZS13aWR0aDoxLjA7Ii8+PHBvbHlnb24gZmlsbD0iIzE4MTgxOCIgcG9pbnRzPSIxNDI3LjksMjUwLjcxLDE0MjQuNTM2OSwyNDEuNDUzMSwxNDI0LjQzMTIsMjQ3LjEwOSwxNDE4Ljc3NTMsMjQ3LjAwMzMsMTQyNy45LDI1MC43MSIgc3R5bGU9InN0cm9rZTojMTgxODE4O3N0cm9rZS13aWR0aDoxLjA7Ii8+PC9nPjwhLS1saW5rIEFkbWluTG9naW4gdG8gRG9jTWFuYWdlbWVudC0tPjxnIGlkPSJsaW5rX0FkbWluTG9naW5fRG9jTWFuYWdlbWVudCI+PHBhdGggZD0iTTExODAuMjEsMTQxLjI2IEMxMTYwLjY1LDE1Ni4wNyAxMTM0LjIxLDE3Ni4xNiAxMTExLDE5NCBDMTA4Ni4xNywyMTMuMDggMTA2Mi43OTEzLDIzMS4yNzAyIDEwNDIuNTMxMywyNDcuMDcwMiAiIGZpbGw9Im5vbmUiIGlkPSJBZG1pbkxvZ2luLXRvLURvY01hbmFnZW1lbnQiIHN0eWxlPSJzdHJva2U6IzE4MTgxODtzdHJva2Utd2lkdGg6MS4wOyIvPjxwb2x5Z29uIGZpbGw9IiMxODE4MTgiIHBvaW50cz0iMTAzNy44LDI1MC43NiwxMDQ3LjM1NjksMjQ4LjM3OTUsMTA0MS43NDI4LDI0Ny42ODUyLDEwNDIuNDM3MSwyNDIuMDcxMSwxMDM3LjgsMjUwLjc2IiBzdHlsZT0ic3Ryb2tlOiMxODE4MTg7c3Ryb2tlLXdpZHRoOjEuMDsiLz48L2c+PCEtLWxpbmsgQWRtaW5Mb2dpbiB0byBOdXJzZU1hbmFnZW1lbnQtLT48ZyBpZD0ibGlua19BZG1pbkxvZ2luX051cnNlTWFuYWdlbWVudCI+PHBhdGggZD0iTTEyMDksMTQxLjEgQzEyMDksMTcwLjA5IDEyMDksMjE1LjMzIDEyMDksMjQ0LjUyICIgZmlsbD0ibm9uZSIgaWQ9IkFkbWluTG9naW4tdG8tTnVyc2VNYW5hZ2VtZW50IiBzdHlsZT0ic3Ryb2tlOiMxODE4MTg7c3Ryb2tlLXdpZHRoOjEuMDsiLz48cG9seWdvbiBmaWxsPSIjMTgxODE4IiBwb2ludHM9IjEyMDksMjUwLjUyLDEyMTMsMjQxLjUyLDEyMDksMjQ1LjUyLDEyMDUsMjQxLjUyLDEyMDksMjUwLjUyIiBzdHlsZT0ic3Ryb2tlOiMxODE4MTg7c3Ryb2tlLXdpZHRoOjEuMDsiLz48L2c+PCEtLWxpbmsgRG9jTG9naW4gdG8gQXBwb2ludG1lbnRzLS0+PGcgaWQ9ImxpbmtfRG9jTG9naW5fQXBwb2ludG1lbnRzIj48cGF0aCBkPSJNNjYwLjk0LDEyMS45MyBDNTczLjU3LDEyNy4xMSA0MTAuNiwxNDMuMzQgMjgyLDE5NCBDMjQ3LDIwNy43OSAyMTYuMzIyNSwyMjkuMTY2MiAxOTMuMzQyNSwyNDcuMjc2MiAiIGZpbGw9Im5vbmUiIGlkPSJEb2NMb2dpbi10by1BcHBvaW50bWVudHMiIHN0eWxlPSJzdHJva2U6IzE4MTgxODtzdHJva2Utd2lkdGg6MS4wOyIvPjxwb2x5Z29uIGZpbGw9IiMxODE4MTgiIHBvaW50cz0iMTg4LjYzLDI1MC45OSwxOTguMTc0NiwyNDguNTYxLDE5Mi41NTcxLDI0Ny44OTUyLDE5My4yMjI5LDI0Mi4yNzc2LDE4OC42MywyNTAuOTkiIHN0eWxlPSJzdHJva2U6IzE4MTgxODtzdHJva2Utd2lkdGg6MS4wOyIvPjwvZz48IS0tbGluayBEb2NMb2dpbiB0byBBbGVydHNIaXN0b3J5REItLT48ZyBpZD0ibGlua19Eb2NMb2dpbl9BbGVydHNIaXN0b3J5REIiPjxwYXRoIGQ9Ik03MDguNzQsMTQxLjEgQzY4OS42LDE3MC4wOSA2NTkuMDg1NiwyMTYuMzIyNyA2MzkuODE1NiwyNDUuNTEyNyAiIGZpbGw9Im5vbmUiIGlkPSJEb2NMb2dpbi10by1BbGVydHNIaXN0b3J5REIiIHN0eWxlPSJzdHJva2U6IzE4MTgxODtzdHJva2Utd2lkdGg6MS4wOyIvPjxwb2x5Z29uIGZpbGw9IiMxODE4MTgiIHBvaW50cz0iNjM2LjUxLDI1MC41Miw2NDQuODA2NiwyNDUuMjEyOCw2MzkuMjY0NywyNDYuMzQ3Myw2MzguMTMwMiwyNDAuODA1Myw2MzYuNTEsMjUwLjUyIiBzdHlsZT0ic3Ryb2tlOiMxODE4MTg7c3Ryb2tlLXdpZHRoOjEuMDsiLz48L2c+PCEtLWxpbmsgRG9jTG9naW4gdG8gUGF0SW5mb0RCLS0+PGcgaWQ9ImxpbmtfRG9jTG9naW5fUGF0SW5mb0RCIj48cGF0aCBkPSJNNjYwLjY2LDEzNS41MiBDNjE1Ljc1LDE0OC4yOCA1NTQuNDQsMTY4LjI3IDUwNCwxOTQgQzQ3Mi44OCwyMDkuODcgNDQ1LjM0NzUsMjI5Ljg5NzIgNDIzLjY3NzUsMjQ3LjExNzIgIiBmaWxsPSJub25lIiBpZD0iRG9jTG9naW4tdG8tUGF0SW5mb0RCIiBzdHlsZT0ic3Ryb2tlOiMxODE4MTg7c3Ryb2tlLXdpZHRoOjEuMDsiLz48cG9seWdvbiBmaWxsPSIjMTgxODE4IiBwb2ludHM9IjQxOC45OCwyNTAuODUsNDI4LjUxNDcsMjQ4LjM4MjQsNDIyLjg5NDUsMjQ3LjczOTMsNDIzLjUzNzYsMjQyLjExOTEsNDE4Ljk4LDI1MC44NSIgc3R5bGU9InN0cm9rZTojMTgxODE4O3N0cm9rZS13aWR0aDoxLjA7Ii8+PC9nPjwhLS1saW5rIERvY0xvZ2luIHRvIFNjaGVkdWxlREItLT48ZyBpZD0ibGlua19Eb2NMb2dpbl9TY2hlZHVsZURCIj48cGF0aCBkPSJNNzg1LjAxLDEyMi44MSBDODY1LjE0LDEyNy4wOCAxMDA4Ljk3LDEzNC43IDExMzIsMTQxIEMxMzY4LjIxLDE1My4xIDE5NjcuMjQsMTMwLjIzIDIxOTUsMTk0IEMyMjM4LDIwNi4wNCAyMjc3LjQ1NywyMjkuMjE3OSAyMzA1LjYwNywyNDguMDk3OSAiIGZpbGw9Im5vbmUiIGlkPSJEb2NMb2dpbi10by1TY2hlZHVsZURCIiBzdHlsZT0ic3Ryb2tlOiMxODE4MTg7c3Ryb2tlLXdpZHRoOjEuMDsiLz48cG9seWdvbiBmaWxsPSIjMTgxODE4IiBwb2ludHM9IjIzMTAuNTksMjUxLjQ0LDIzMDUuMzQzNSwyNDMuMTA0OSwyMzA2LjQzNzUsMjQ4LjY1NDksMjMwMC44ODc0LDI0OS43NDg5LDIzMTAuNTksMjUxLjQ0IiBzdHlsZT0ic3Ryb2tlOiMxODE4MTg7c3Ryb2tlLXdpZHRoOjEuMDsiLz48L2c+PCEtLWxpbmsgQWRtaW5Mb2dpbiB0byBTZXR0aW5ncy0tPjxnIGlkPSJsaW5rX0FkbWluTG9naW5fU2V0dGluZ3MiPjxwYXRoIGQ9Ik0xMTQ5Ljg0LDEyMy4zOCBDMTA4Ni4xMSwxMjkuOSA5ODMuOCwxNDcuMzYgOTA5LDE5NCBDODg2LjE5LDIwOC4yMyA4NzAuNTg3NywyMjcuOTQ3OSA4NTguOTU3NywyNDUuODU3OSAiIGZpbGw9Im5vbmUiIGlkPSJBZG1pbkxvZ2luLXRvLVNldHRpbmdzIiBzdHlsZT0ic3Ryb2tlOiMxODE4MTg7c3Ryb2tlLXdpZHRoOjEuMDsiLz48cG9seWdvbiBmaWxsPSIjMTgxODE4IiBwb2ludHM9Ijg1NS42OSwyNTAuODksODYzLjk0NjIsMjQ1LjUyMDIsODU4LjQxMywyNDYuNjk2Niw4NTcuMjM2NywyNDEuMTYzNCw4NTUuNjksMjUwLjg5IiBzdHlsZT0ic3Ryb2tlOiMxODE4MTg7c3Ryb2tlLXdpZHRoOjEuMDsiLz48L2c+PCEtLWxpbmsgRG9jTG9naW4gdG8gU2V0dGluZ3MtLT48ZyBpZD0ibGlua19Eb2NMb2dpbl9TZXR0aW5ncyI+PHBhdGggZD0iTTc0Mi42NywxNDEuMjIgQzc1MC43LDE1MC4yOCA3NTkuOTYsMTYxLjAxIDc2OCwxNzEgQzc4OS41NiwxOTcuODEgODA5LjQwMDYsMjI1LjAyMTkgODI0LjIyMDYsMjQ1Ljg0MTkgIiBmaWxsPSJub25lIiBpZD0iRG9jTG9naW4tdG8tU2V0dGluZ3MiIHN0eWxlPSJzdHJva2U6IzE4MTgxODtzdHJva2Utd2lkdGg6MS4wOyIvPjxwb2x5Z29uIGZpbGw9IiMxODE4MTgiIHBvaW50cz0iODI3LjcsMjUwLjczLDgyNS43Mzk2LDI0MS4wNzgyLDgyNC44MDA1LDI0Ni42NTY2LDgxOS4yMjIxLDI0NS43MTc1LDgyNy43LDI1MC43MyIgc3R5bGU9InN0cm9rZTojMTgxODE4O3N0cm9rZS13aWR0aDoxLjA7Ii8+PC9nPjwhLS1TUkM9W2JMUERaemVtNEJ0cEFvcEU4RXZ4ZzBJNWJmS0FHYTJ4MXlKMTlCRFdEVFhIUjVnWFFsenhucno5ZDNZMXZPM20tQnRub19GQ1g5bWNsLWFQbzcwWnhfaTI1c0h0Ym1na0dfOWxHRjFabGw4SUgxSzNoaVdSTFNkNUdfR2Q0VFRTU0Jxck4wOGo1RGJJMU1HYkU1RVk2MThnb05BeFlnNE5MdzZPdTZHRTJYQnpvdTBOeW5acy1zUDdaNFFtQU42ellVNWNjSDBmc0hHV3ZRcThMU21zS0hOSloxUE5pZUs0czEtTnQ4SXNXbkFELWlkdWk3b1RwblZodXRaeWZRdkgybWF0N1RpM3lEWkVfT3oxd0Y3d0xhWW0zZkRmZGRVdUZDcTBOTHdaVVV5aWVUZXV3TUhaVjFyWl8xME1Qb3JhXzZwbTYzTmg2Q0ZWRGp1RFBQZERacDZ0WjM2LVlYa05hNjVvaWFpa2FEdW9pM0l6V1A1a3hfUzVFdl9ocmt6eHA1Yzk0eWtXbnZySUVMTktmNEk2TGV4QkpaRW5IOWQ0RWhieFdlc3dPOG1NRlk4b29pMnBSWmZQREtFUjN4bUtDY1VBUGZFdkk1MDdVT0VKUDBnd2dZQXpDZXZ0VWNRc1p5cFFCNkRlYnhBMk93MEpaNk9CbmpLTDV3WVJTYklkVnpqWlFkanpaX3hBdHVNdmFuRUx1Q2o5MS1VcG56U0k0ZUZCWVRFM3ZZWjc2ZEEzWlVaMWQ2UHRuSDlxWENoQklUMFlqT1Z3VUJVUkJNeW1ONE1ZQ2RMOWpzV2NzYV9TV0xCT1FSUUlfQUF0WTZlTUxrTUprYlpPRFZLUmdqYlJXTHRuMTVZQ0hSNnNRbUVlMktOMVRoQkxVejU0ZWJaVlM2NWs3dEtLdnlPWFU3YVRZSHgzWHlRbUZQOE5UOUFkbGh2NlVoSUZJRkxBd3luYVJEOWlMMHQ2alQ5QW9zY1RMM2tfY2NUNm05cWRwb1BtcmxZM0lNMVUzdy1vMkFhX1N0R0s5anowR3k4UDVYNWVUN1VDOUl0VmZXYnhUcUdRcXN6S0V5U1NMNHNneTROUHhiS19mRmZtMWNZbHY5N1NObXAtSlhPZktzdEJKSmJfOGE2ajlHcFZyVldkQ2JJRE9hcm5qX2pDV2VSWlhiLXh2S1NmeEFYZkpfOTNFVkVFSnlmZXB5eHMzVWxBM01QZk94Q3pEMWswczdZaTJhRWRScHY4azFqdlVtSTB5QnFLUjNNY0lxRE9DOFQzZGpfZmNtVURvVkJZX25WUF9xSG95RjRWXS0tPjwvZz48L3N2Zz4=;flipV=0;flipH=0;direction=east;" vertex="1" parent="1">
            <mxGeometry x="-1430" y="400" width="4143" height="497" as="geometry" />
          </mxCell>
        </UserObject>
      </root>
    </mxGraphModel>
  </diagram>
</mxfile>
